G04*
G04 #@! TF.GenerationSoftware,Altium Limited,Altium Designer,21.4.1 (30)*
G04*
G04 Layer_Color=8388736*
%FSLAX25Y25*%
%MOIN*%
G70*
G04*
G04 #@! TF.SameCoordinates,7442B5C9-F661-4E5B-B0DF-60D3DF887EF4*
G04*
G04*
G04 #@! TF.FilePolarity,Positive*
G04*
G01*
G75*
%ADD11C,0.00591*%
%ADD12C,0.00787*%
%ADD14C,0.00394*%
%ADD15C,0.01000*%
%ADD16C,0.00197*%
G36*
X233071Y370765D02*
X231102D01*
X231106Y370761D01*
X231120Y370743D01*
X231142Y370721D01*
X231168Y370685D01*
X231201Y370645D01*
X231237Y370594D01*
X231277Y370536D01*
X231317Y370470D01*
Y370467D01*
X231321Y370463D01*
X231335Y370441D01*
X231353Y370405D01*
X231375Y370361D01*
X231401Y370310D01*
X231426Y370255D01*
X231452Y370201D01*
X231473Y370146D01*
X231175D01*
Y370150D01*
X231168Y370157D01*
X231164Y370172D01*
X231153Y370190D01*
X231142Y370212D01*
X231128Y370237D01*
X231091Y370299D01*
X231051Y370372D01*
X231000Y370445D01*
X230942Y370521D01*
X230880Y370598D01*
X230877Y370601D01*
X230873Y370605D01*
X230862Y370616D01*
X230851Y370630D01*
X230815Y370663D01*
X230771Y370707D01*
X230720Y370750D01*
X230662Y370798D01*
X230604Y370838D01*
X230542Y370874D01*
Y371075D01*
X233071D01*
Y370765D01*
D02*
G37*
G36*
Y369298D02*
X232547Y368967D01*
X232544D01*
X232536Y368960D01*
X232525Y368952D01*
X232511Y368941D01*
X232471Y368916D01*
X232420Y368883D01*
X232365Y368843D01*
X232307Y368803D01*
X232253Y368763D01*
X232202Y368727D01*
X232198Y368723D01*
X232183Y368712D01*
X232161Y368694D01*
X232136Y368668D01*
X232081Y368614D01*
X232056Y368585D01*
X232034Y368556D01*
X232030Y368552D01*
X232027Y368545D01*
X232019Y368530D01*
X232009Y368508D01*
X231998Y368486D01*
X231987Y368461D01*
X231969Y368403D01*
Y368399D01*
X231965Y368392D01*
Y368377D01*
X231961Y368359D01*
X231958Y368334D01*
Y368304D01*
X231954Y368264D01*
Y367835D01*
X233071D01*
Y367500D01*
X230553D01*
Y368668D01*
X230556Y368698D01*
Y368730D01*
X230560Y368807D01*
X230571Y368887D01*
X230582Y368974D01*
X230600Y369054D01*
X230611Y369094D01*
X230622Y369127D01*
Y369131D01*
X230625Y369134D01*
X230636Y369156D01*
X230651Y369189D01*
X230676Y369229D01*
X230709Y369273D01*
X230753Y369320D01*
X230804Y369364D01*
X230862Y369407D01*
X230866D01*
X230869Y369411D01*
X230891Y369426D01*
X230927Y369440D01*
X230975Y369462D01*
X231029Y369480D01*
X231095Y369498D01*
X231164Y369509D01*
X231241Y369513D01*
X231244D01*
X231252D01*
X231266D01*
X231284Y369509D01*
X231310D01*
X231335Y369506D01*
X231397Y369491D01*
X231470Y369469D01*
X231546Y369440D01*
X231623Y369396D01*
X231659Y369367D01*
X231696Y369338D01*
X231699Y369335D01*
X231703Y369331D01*
X231714Y369320D01*
X231725Y369305D01*
X231739Y369287D01*
X231754Y369265D01*
X231772Y369236D01*
X231794Y369207D01*
X231812Y369171D01*
X231830Y369131D01*
X231852Y369087D01*
X231870Y369040D01*
X231885Y368985D01*
X231903Y368931D01*
X231914Y368869D01*
X231925Y368803D01*
X231928Y368810D01*
X231936Y368825D01*
X231950Y368847D01*
X231965Y368876D01*
X232005Y368941D01*
X232030Y368974D01*
X232052Y369003D01*
X232060Y369011D01*
X232078Y369029D01*
X232107Y369058D01*
X232143Y369094D01*
X232194Y369134D01*
X232249Y369182D01*
X232314Y369229D01*
X232387Y369280D01*
X233071Y369713D01*
Y369298D01*
D02*
G37*
G36*
X249947Y366332D02*
X249944Y366302D01*
Y366270D01*
X249940Y366193D01*
X249929Y366113D01*
X249918Y366026D01*
X249900Y365946D01*
X249889Y365906D01*
X249878Y365873D01*
Y365869D01*
X249875Y365866D01*
X249864Y365844D01*
X249849Y365811D01*
X249824Y365771D01*
X249791Y365727D01*
X249747Y365680D01*
X249696Y365636D01*
X249638Y365593D01*
X249634D01*
X249631Y365589D01*
X249609Y365575D01*
X249572Y365560D01*
X249525Y365538D01*
X249471Y365520D01*
X249405Y365502D01*
X249336Y365491D01*
X249259Y365487D01*
X249256D01*
X249249D01*
X249234D01*
X249216Y365491D01*
X249190D01*
X249165Y365494D01*
X249103Y365509D01*
X249030Y365531D01*
X248954Y365560D01*
X248877Y365604D01*
X248841Y365633D01*
X248804Y365662D01*
X248801Y365666D01*
X248797Y365669D01*
X248786Y365680D01*
X248775Y365695D01*
X248761Y365713D01*
X248746Y365735D01*
X248728Y365764D01*
X248706Y365793D01*
X248688Y365829D01*
X248670Y365869D01*
X248648Y365913D01*
X248630Y365960D01*
X248615Y366015D01*
X248597Y366070D01*
X248586Y366131D01*
X248575Y366197D01*
X248571Y366190D01*
X248564Y366175D01*
X248550Y366153D01*
X248535Y366124D01*
X248495Y366059D01*
X248470Y366026D01*
X248448Y365997D01*
X248440Y365989D01*
X248422Y365971D01*
X248393Y365942D01*
X248357Y365906D01*
X248306Y365866D01*
X248251Y365818D01*
X248186Y365771D01*
X248113Y365720D01*
X247428Y365287D01*
Y365702D01*
X247953Y366033D01*
X247956D01*
X247964Y366040D01*
X247974Y366048D01*
X247989Y366059D01*
X248029Y366084D01*
X248080Y366117D01*
X248135Y366157D01*
X248193Y366197D01*
X248248Y366237D01*
X248299Y366273D01*
X248302Y366277D01*
X248317Y366288D01*
X248339Y366306D01*
X248364Y366332D01*
X248419Y366386D01*
X248444Y366415D01*
X248466Y366444D01*
X248470Y366448D01*
X248473Y366455D01*
X248481Y366470D01*
X248491Y366492D01*
X248502Y366514D01*
X248513Y366539D01*
X248531Y366597D01*
Y366601D01*
X248535Y366608D01*
Y366623D01*
X248539Y366641D01*
X248542Y366667D01*
Y366696D01*
X248546Y366736D01*
Y367165D01*
X247428D01*
Y367500D01*
X249947D01*
Y366332D01*
D02*
G37*
G36*
X247498Y365130D02*
X247530Y365127D01*
X247567Y365120D01*
X247603Y365112D01*
X247643Y365098D01*
X247647D01*
X247651Y365094D01*
X247672Y365087D01*
X247705Y365072D01*
X247749Y365050D01*
X247800Y365021D01*
X247858Y364985D01*
X247916Y364945D01*
X247978Y364894D01*
X247982D01*
X247985Y364887D01*
X248007Y364868D01*
X248040Y364836D01*
X248087Y364788D01*
X248142Y364734D01*
X248207Y364665D01*
X248280Y364581D01*
X248357Y364490D01*
X248360Y364486D01*
X248371Y364472D01*
X248390Y364450D01*
X248411Y364424D01*
X248440Y364391D01*
X248473Y364352D01*
X248510Y364311D01*
X248550Y364264D01*
X248637Y364173D01*
X248724Y364082D01*
X248768Y364038D01*
X248812Y363998D01*
X248852Y363962D01*
X248892Y363933D01*
X248895D01*
X248899Y363926D01*
X248910Y363918D01*
X248925Y363911D01*
X248965Y363886D01*
X249012Y363856D01*
X249070Y363831D01*
X249132Y363806D01*
X249201Y363791D01*
X249267Y363784D01*
X249270D01*
X249274D01*
X249296Y363787D01*
X249332Y363791D01*
X249372Y363802D01*
X249423Y363816D01*
X249474Y363842D01*
X249525Y363875D01*
X249576Y363918D01*
X249583Y363926D01*
X249598Y363944D01*
X249616Y363969D01*
X249642Y364009D01*
X249663Y364060D01*
X249685Y364119D01*
X249700Y364188D01*
X249704Y364264D01*
Y364286D01*
X249700Y364300D01*
X249696Y364344D01*
X249685Y364395D01*
X249671Y364450D01*
X249645Y364512D01*
X249612Y364570D01*
X249569Y364625D01*
X249562Y364632D01*
X249543Y364646D01*
X249514Y364668D01*
X249471Y364690D01*
X249420Y364716D01*
X249354Y364737D01*
X249281Y364752D01*
X249198Y364759D01*
X249230Y365076D01*
X249234D01*
X249245Y365072D01*
X249263D01*
X249289Y365069D01*
X249318Y365061D01*
X249350Y365054D01*
X249391Y365043D01*
X249430Y365032D01*
X249518Y365003D01*
X249605Y364959D01*
X249649Y364934D01*
X249693Y364901D01*
X249733Y364868D01*
X249769Y364832D01*
X249773Y364828D01*
X249776Y364821D01*
X249787Y364810D01*
X249798Y364792D01*
X249813Y364770D01*
X249827Y364745D01*
X249846Y364716D01*
X249864Y364679D01*
X249882Y364639D01*
X249900Y364595D01*
X249915Y364548D01*
X249929Y364497D01*
X249940Y364442D01*
X249951Y364384D01*
X249955Y364322D01*
X249958Y364257D01*
Y364220D01*
X249955Y364195D01*
X249951Y364166D01*
X249947Y364129D01*
X249940Y364089D01*
X249933Y364049D01*
X249907Y363955D01*
X249871Y363860D01*
X249849Y363813D01*
X249824Y363765D01*
X249791Y363722D01*
X249755Y363682D01*
X249751Y363678D01*
X249747Y363671D01*
X249733Y363664D01*
X249718Y363649D01*
X249700Y363631D01*
X249674Y363613D01*
X249649Y363594D01*
X249616Y363573D01*
X249547Y363536D01*
X249460Y363500D01*
X249416Y363485D01*
X249365Y363478D01*
X249314Y363471D01*
X249259Y363467D01*
X249252D01*
X249234D01*
X249205Y363471D01*
X249165Y363474D01*
X249121Y363481D01*
X249070Y363496D01*
X249016Y363511D01*
X248961Y363532D01*
X248954Y363536D01*
X248936Y363543D01*
X248906Y363558D01*
X248866Y363580D01*
X248823Y363609D01*
X248768Y363645D01*
X248713Y363689D01*
X248652Y363740D01*
X248644Y363747D01*
X248622Y363765D01*
X248604Y363784D01*
X248586Y363802D01*
X248564Y363824D01*
X248535Y363853D01*
X248506Y363882D01*
X248473Y363918D01*
X248437Y363955D01*
X248397Y363998D01*
X248357Y364046D01*
X248309Y364097D01*
X248262Y364155D01*
X248211Y364213D01*
X248207Y364217D01*
X248200Y364224D01*
X248189Y364239D01*
X248175Y364257D01*
X248153Y364279D01*
X248131Y364304D01*
X248084Y364362D01*
X248029Y364424D01*
X247974Y364482D01*
X247927Y364533D01*
X247909Y364555D01*
X247891Y364574D01*
X247887Y364577D01*
X247876Y364588D01*
X247862Y364603D01*
X247840Y364621D01*
X247814Y364639D01*
X247789Y364661D01*
X247727Y364705D01*
Y363463D01*
X247428D01*
Y365134D01*
X247432D01*
X247447D01*
X247469D01*
X247498Y365130D01*
D02*
G37*
G36*
X261181Y371209D02*
X261786D01*
Y370900D01*
X261181D01*
Y369804D01*
X260898D01*
X259267Y370958D01*
Y371209D01*
X260898D01*
Y371551D01*
X261181D01*
Y371209D01*
D02*
G37*
G36*
X261786Y369298D02*
X261262Y368967D01*
X261258D01*
X261251Y368960D01*
X261240Y368952D01*
X261225Y368941D01*
X261185Y368916D01*
X261134Y368883D01*
X261080Y368843D01*
X261021Y368803D01*
X260967Y368763D01*
X260916Y368727D01*
X260912Y368723D01*
X260898Y368712D01*
X260876Y368694D01*
X260850Y368668D01*
X260796Y368614D01*
X260770Y368585D01*
X260748Y368556D01*
X260745Y368552D01*
X260741Y368545D01*
X260734Y368530D01*
X260723Y368508D01*
X260712Y368486D01*
X260701Y368461D01*
X260683Y368403D01*
Y368399D01*
X260679Y368392D01*
Y368377D01*
X260676Y368359D01*
X260672Y368334D01*
Y368304D01*
X260668Y368264D01*
Y367835D01*
X261786D01*
Y367500D01*
X259267D01*
Y368668D01*
X259271Y368698D01*
Y368730D01*
X259274Y368807D01*
X259285Y368887D01*
X259296Y368974D01*
X259314Y369054D01*
X259325Y369094D01*
X259336Y369127D01*
Y369131D01*
X259340Y369134D01*
X259351Y369156D01*
X259365Y369189D01*
X259391Y369229D01*
X259423Y369273D01*
X259467Y369320D01*
X259518Y369364D01*
X259576Y369407D01*
X259580D01*
X259584Y369411D01*
X259605Y369426D01*
X259642Y369440D01*
X259689Y369462D01*
X259744Y369480D01*
X259809Y369498D01*
X259878Y369509D01*
X259955Y369513D01*
X259959D01*
X259966D01*
X259980D01*
X259998Y369509D01*
X260024D01*
X260050Y369506D01*
X260111Y369491D01*
X260184Y369469D01*
X260261Y369440D01*
X260337Y369396D01*
X260373Y369367D01*
X260410Y369338D01*
X260414Y369335D01*
X260417Y369331D01*
X260428Y369320D01*
X260439Y369305D01*
X260454Y369287D01*
X260468Y369265D01*
X260486Y369236D01*
X260508Y369207D01*
X260526Y369171D01*
X260544Y369131D01*
X260566Y369087D01*
X260585Y369040D01*
X260599Y368985D01*
X260617Y368931D01*
X260628Y368869D01*
X260639Y368803D01*
X260643Y368810D01*
X260650Y368825D01*
X260665Y368847D01*
X260679Y368876D01*
X260719Y368941D01*
X260745Y368974D01*
X260767Y369003D01*
X260774Y369011D01*
X260792Y369029D01*
X260821Y369058D01*
X260858Y369094D01*
X260909Y369134D01*
X260963Y369182D01*
X261029Y369229D01*
X261101Y369280D01*
X261786Y369713D01*
Y369298D01*
D02*
G37*
G36*
X166954Y356070D02*
X166980D01*
X167009Y356066D01*
X167078Y356052D01*
X167155Y356033D01*
X167235Y356004D01*
X167315Y355961D01*
X167355Y355935D01*
X167391Y355906D01*
X167395Y355902D01*
X167398Y355899D01*
X167409Y355888D01*
X167420Y355877D01*
X167438Y355859D01*
X167453Y355837D01*
X167493Y355786D01*
X167533Y355720D01*
X167569Y355640D01*
X167602Y355549D01*
X167624Y355447D01*
X167315Y355422D01*
Y355426D01*
X167311Y355429D01*
X167307Y355451D01*
X167297Y355484D01*
X167282Y355524D01*
X167267Y355568D01*
X167245Y355611D01*
X167220Y355651D01*
X167195Y355684D01*
X167187Y355691D01*
X167173Y355706D01*
X167147Y355728D01*
X167111Y355753D01*
X167063Y355775D01*
X167013Y355797D01*
X166951Y355811D01*
X166885Y355819D01*
X166860D01*
X166831Y355815D01*
X166798Y355808D01*
X166754Y355797D01*
X166710Y355782D01*
X166667Y355764D01*
X166623Y355735D01*
X166616Y355731D01*
X166598Y355717D01*
X166572Y355691D01*
X166539Y355655D01*
X166503Y355611D01*
X166463Y355560D01*
X166427Y355495D01*
X166390Y355422D01*
Y355418D01*
X166386Y355411D01*
X166383Y355400D01*
X166376Y355385D01*
X166372Y355364D01*
X166365Y355338D01*
X166357Y355309D01*
X166350Y355273D01*
X166339Y355233D01*
X166332Y355189D01*
X166325Y355142D01*
X166321Y355091D01*
X166314Y355032D01*
X166310Y354974D01*
X166306Y354909D01*
Y354843D01*
X166310Y354847D01*
X166325Y354869D01*
X166350Y354898D01*
X166383Y354934D01*
X166419Y354978D01*
X166467Y355018D01*
X166517Y355058D01*
X166576Y355094D01*
X166579D01*
X166583Y355098D01*
X166605Y355109D01*
X166638Y355120D01*
X166681Y355138D01*
X166732Y355153D01*
X166790Y355163D01*
X166852Y355174D01*
X166918Y355178D01*
X166947D01*
X166969Y355174D01*
X166998Y355171D01*
X167027Y355167D01*
X167063Y355160D01*
X167100Y355149D01*
X167184Y355123D01*
X167227Y355105D01*
X167271Y355080D01*
X167315Y355054D01*
X167362Y355025D01*
X167406Y354989D01*
X167446Y354949D01*
X167449Y354945D01*
X167457Y354938D01*
X167468Y354927D01*
X167479Y354909D01*
X167497Y354883D01*
X167515Y354858D01*
X167533Y354825D01*
X167555Y354788D01*
X167577Y354749D01*
X167595Y354705D01*
X167613Y354654D01*
X167631Y354603D01*
X167642Y354548D01*
X167653Y354486D01*
X167660Y354425D01*
X167664Y354359D01*
Y354355D01*
Y354348D01*
Y354337D01*
Y354319D01*
X167660Y354297D01*
Y354275D01*
X167649Y354217D01*
X167639Y354148D01*
X167620Y354075D01*
X167595Y353995D01*
X167559Y353919D01*
Y353915D01*
X167555Y353911D01*
X167548Y353900D01*
X167540Y353886D01*
X167518Y353849D01*
X167486Y353802D01*
X167446Y353751D01*
X167398Y353700D01*
X167340Y353649D01*
X167278Y353606D01*
X167275D01*
X167271Y353602D01*
X167260Y353595D01*
X167245Y353591D01*
X167209Y353573D01*
X167162Y353555D01*
X167100Y353533D01*
X167031Y353518D01*
X166954Y353504D01*
X166871Y353500D01*
X166852D01*
X166834Y353504D01*
X166805D01*
X166772Y353507D01*
X166736Y353515D01*
X166692Y353525D01*
X166649Y353536D01*
X166598Y353551D01*
X166547Y353569D01*
X166496Y353591D01*
X166441Y353620D01*
X166390Y353653D01*
X166339Y353689D01*
X166288Y353733D01*
X166241Y353784D01*
X166237Y353787D01*
X166230Y353798D01*
X166219Y353813D01*
X166205Y353838D01*
X166183Y353871D01*
X166164Y353908D01*
X166143Y353955D01*
X166121Y354006D01*
X166095Y354068D01*
X166073Y354137D01*
X166055Y354213D01*
X166037Y354297D01*
X166019Y354392D01*
X166008Y354494D01*
X166001Y354603D01*
X165997Y354719D01*
Y354723D01*
Y354727D01*
Y354738D01*
Y354752D01*
X166001Y354788D01*
Y354839D01*
X166004Y354898D01*
X166012Y354967D01*
X166019Y355043D01*
X166030Y355127D01*
X166044Y355211D01*
X166062Y355302D01*
X166084Y355389D01*
X166110Y355476D01*
X166143Y355560D01*
X166179Y355640D01*
X166219Y355717D01*
X166266Y355782D01*
X166270Y355786D01*
X166277Y355793D01*
X166292Y355808D01*
X166310Y355830D01*
X166332Y355851D01*
X166361Y355873D01*
X166397Y355902D01*
X166434Y355928D01*
X166478Y355953D01*
X166525Y355982D01*
X166579Y356004D01*
X166634Y356030D01*
X166696Y356048D01*
X166761Y356063D01*
X166831Y356070D01*
X166903Y356073D01*
X166932D01*
X166954Y356070D01*
D02*
G37*
G36*
X164749Y356103D02*
X164781Y356099D01*
X164821Y356095D01*
X164861Y356092D01*
X164909Y356081D01*
X165007Y356059D01*
X165116Y356026D01*
X165171Y356004D01*
X165222Y355979D01*
X165273Y355946D01*
X165324Y355913D01*
X165327Y355910D01*
X165334Y355906D01*
X165349Y355895D01*
X165367Y355877D01*
X165385Y355859D01*
X165411Y355833D01*
X165436Y355804D01*
X165466Y355775D01*
X165495Y355738D01*
X165524Y355695D01*
X165557Y355651D01*
X165586Y355604D01*
X165611Y355549D01*
X165640Y355495D01*
X165662Y355436D01*
X165684Y355371D01*
X165356Y355294D01*
Y355298D01*
X165353Y355305D01*
X165345Y355320D01*
X165338Y355338D01*
X165331Y355360D01*
X165320Y355389D01*
X165291Y355447D01*
X165254Y355513D01*
X165211Y355578D01*
X165156Y355640D01*
X165098Y355695D01*
X165091Y355702D01*
X165069Y355717D01*
X165032Y355735D01*
X164985Y355760D01*
X164923Y355782D01*
X164854Y355804D01*
X164770Y355819D01*
X164679Y355822D01*
X164650D01*
X164632Y355819D01*
X164606D01*
X164577Y355815D01*
X164508Y355804D01*
X164432Y355789D01*
X164352Y355764D01*
X164268Y355728D01*
X164192Y355680D01*
X164188D01*
X164184Y355673D01*
X164159Y355655D01*
X164126Y355626D01*
X164086Y355582D01*
X164039Y355527D01*
X163995Y355466D01*
X163955Y355389D01*
X163919Y355305D01*
Y355302D01*
X163915Y355294D01*
X163911Y355284D01*
X163908Y355265D01*
X163900Y355243D01*
X163893Y355218D01*
X163882Y355156D01*
X163868Y355083D01*
X163853Y355003D01*
X163846Y354916D01*
X163842Y354821D01*
Y354818D01*
Y354807D01*
Y354788D01*
Y354767D01*
X163846Y354741D01*
Y354708D01*
X163849Y354672D01*
X163853Y354632D01*
X163864Y354545D01*
X163882Y354450D01*
X163904Y354355D01*
X163933Y354261D01*
Y354257D01*
X163937Y354250D01*
X163944Y354239D01*
X163951Y354221D01*
X163973Y354177D01*
X164006Y354126D01*
X164046Y354068D01*
X164097Y354006D01*
X164155Y353951D01*
X164224Y353900D01*
X164228D01*
X164235Y353897D01*
X164246Y353889D01*
X164261Y353882D01*
X164279Y353875D01*
X164301Y353864D01*
X164352Y353842D01*
X164417Y353820D01*
X164490Y353802D01*
X164570Y353787D01*
X164654Y353784D01*
X164679D01*
X164701Y353787D01*
X164727D01*
X164752Y353791D01*
X164818Y353806D01*
X164894Y353824D01*
X164971Y353853D01*
X165051Y353893D01*
X165091Y353915D01*
X165127Y353944D01*
X165131Y353948D01*
X165134Y353951D01*
X165145Y353962D01*
X165160Y353973D01*
X165174Y353991D01*
X165193Y354013D01*
X165214Y354035D01*
X165233Y354064D01*
X165254Y354097D01*
X165280Y354133D01*
X165302Y354170D01*
X165324Y354213D01*
X165342Y354261D01*
X165360Y354312D01*
X165378Y354366D01*
X165393Y354425D01*
X165728Y354341D01*
Y354337D01*
X165724Y354323D01*
X165717Y354301D01*
X165706Y354272D01*
X165695Y354239D01*
X165680Y354199D01*
X165662Y354155D01*
X165640Y354108D01*
X165589Y354006D01*
X165524Y353904D01*
X165484Y353853D01*
X165444Y353802D01*
X165400Y353758D01*
X165349Y353715D01*
X165345Y353711D01*
X165338Y353704D01*
X165320Y353696D01*
X165302Y353682D01*
X165273Y353664D01*
X165243Y353646D01*
X165203Y353627D01*
X165163Y353609D01*
X165116Y353587D01*
X165065Y353569D01*
X165010Y353551D01*
X164952Y353533D01*
X164890Y353518D01*
X164825Y353511D01*
X164756Y353504D01*
X164683Y353500D01*
X164643D01*
X164614Y353504D01*
X164581D01*
X164541Y353507D01*
X164497Y353515D01*
X164446Y353522D01*
X164341Y353540D01*
X164232Y353569D01*
X164122Y353609D01*
X164071Y353635D01*
X164021Y353664D01*
X164017Y353667D01*
X164009Y353671D01*
X163995Y353682D01*
X163980Y353696D01*
X163959Y353711D01*
X163933Y353733D01*
X163904Y353758D01*
X163875Y353787D01*
X163846Y353820D01*
X163813Y353853D01*
X163748Y353937D01*
X163686Y354035D01*
X163631Y354144D01*
Y354148D01*
X163624Y354159D01*
X163620Y354177D01*
X163609Y354199D01*
X163602Y354228D01*
X163591Y354264D01*
X163576Y354304D01*
X163566Y354348D01*
X163555Y354395D01*
X163540Y354450D01*
X163522Y354563D01*
X163507Y354690D01*
X163500Y354821D01*
Y354825D01*
Y354839D01*
Y354861D01*
X163504Y354887D01*
Y354923D01*
X163507Y354960D01*
X163511Y355007D01*
X163518Y355054D01*
X163536Y355160D01*
X163562Y355276D01*
X163598Y355393D01*
X163649Y355506D01*
X163653Y355509D01*
X163656Y355520D01*
X163664Y355535D01*
X163678Y355553D01*
X163693Y355578D01*
X163711Y355608D01*
X163758Y355673D01*
X163820Y355746D01*
X163893Y355819D01*
X163977Y355891D01*
X164075Y355953D01*
X164079Y355957D01*
X164090Y355961D01*
X164104Y355968D01*
X164122Y355979D01*
X164152Y355990D01*
X164181Y356001D01*
X164217Y356015D01*
X164257Y356030D01*
X164301Y356044D01*
X164348Y356059D01*
X164450Y356081D01*
X164567Y356099D01*
X164687Y356106D01*
X164723D01*
X164749Y356103D01*
D02*
G37*
G36*
X289703Y371559D02*
X289725D01*
X289783Y371548D01*
X289852Y371537D01*
X289925Y371518D01*
X290005Y371493D01*
X290081Y371457D01*
X290085D01*
X290089Y371453D01*
X290100Y371446D01*
X290114Y371439D01*
X290151Y371417D01*
X290198Y371384D01*
X290249Y371344D01*
X290300Y371297D01*
X290351Y371238D01*
X290394Y371176D01*
Y371173D01*
X290398Y371169D01*
X290405Y371158D01*
X290409Y371144D01*
X290427Y371107D01*
X290445Y371060D01*
X290467Y370998D01*
X290482Y370929D01*
X290496Y370852D01*
X290500Y370769D01*
Y370750D01*
X290496Y370732D01*
Y370703D01*
X290493Y370670D01*
X290486Y370634D01*
X290475Y370590D01*
X290464Y370547D01*
X290449Y370496D01*
X290431Y370445D01*
X290409Y370394D01*
X290380Y370339D01*
X290347Y370288D01*
X290311Y370237D01*
X290267Y370186D01*
X290216Y370139D01*
X290212Y370135D01*
X290202Y370128D01*
X290187Y370117D01*
X290161Y370103D01*
X290129Y370081D01*
X290092Y370062D01*
X290045Y370041D01*
X289994Y370019D01*
X289932Y369993D01*
X289863Y369971D01*
X289787Y369953D01*
X289703Y369935D01*
X289608Y369917D01*
X289506Y369906D01*
X289397Y369899D01*
X289281Y369895D01*
X289277D01*
X289273D01*
X289262D01*
X289248D01*
X289212Y369899D01*
X289160D01*
X289102Y369902D01*
X289033Y369910D01*
X288957Y369917D01*
X288873Y369928D01*
X288789Y369942D01*
X288698Y369961D01*
X288611Y369983D01*
X288524Y370008D01*
X288440Y370041D01*
X288360Y370077D01*
X288283Y370117D01*
X288218Y370164D01*
X288214Y370168D01*
X288207Y370175D01*
X288192Y370190D01*
X288170Y370208D01*
X288149Y370230D01*
X288127Y370259D01*
X288098Y370296D01*
X288072Y370332D01*
X288047Y370376D01*
X288018Y370423D01*
X287996Y370478D01*
X287970Y370532D01*
X287952Y370594D01*
X287937Y370659D01*
X287930Y370729D01*
X287927Y370801D01*
Y370831D01*
X287930Y370852D01*
Y370878D01*
X287934Y370907D01*
X287948Y370976D01*
X287967Y371053D01*
X287996Y371133D01*
X288039Y371213D01*
X288065Y371253D01*
X288094Y371289D01*
X288098Y371293D01*
X288101Y371297D01*
X288112Y371307D01*
X288123Y371318D01*
X288141Y371337D01*
X288163Y371351D01*
X288214Y371391D01*
X288280Y371431D01*
X288360Y371468D01*
X288451Y371500D01*
X288553Y371522D01*
X288578Y371213D01*
X288575D01*
X288571Y371209D01*
X288549Y371205D01*
X288516Y371195D01*
X288476Y371180D01*
X288433Y371165D01*
X288389Y371144D01*
X288349Y371118D01*
X288316Y371093D01*
X288309Y371085D01*
X288294Y371071D01*
X288272Y371045D01*
X288247Y371009D01*
X288225Y370962D01*
X288203Y370911D01*
X288189Y370849D01*
X288181Y370783D01*
Y370758D01*
X288185Y370729D01*
X288192Y370696D01*
X288203Y370652D01*
X288218Y370608D01*
X288236Y370565D01*
X288265Y370521D01*
X288269Y370514D01*
X288283Y370496D01*
X288309Y370470D01*
X288345Y370438D01*
X288389Y370401D01*
X288440Y370361D01*
X288505Y370325D01*
X288578Y370288D01*
X288582D01*
X288589Y370285D01*
X288600Y370281D01*
X288615Y370274D01*
X288636Y370270D01*
X288662Y370263D01*
X288691Y370255D01*
X288727Y370248D01*
X288767Y370237D01*
X288811Y370230D01*
X288858Y370223D01*
X288909Y370219D01*
X288968Y370212D01*
X289026Y370208D01*
X289091Y370204D01*
X289157D01*
X289153Y370208D01*
X289131Y370223D01*
X289102Y370248D01*
X289066Y370281D01*
X289022Y370317D01*
X288982Y370365D01*
X288942Y370416D01*
X288906Y370474D01*
Y370478D01*
X288902Y370481D01*
X288891Y370503D01*
X288880Y370536D01*
X288862Y370579D01*
X288847Y370630D01*
X288837Y370689D01*
X288826Y370750D01*
X288822Y370816D01*
Y370845D01*
X288826Y370867D01*
X288829Y370896D01*
X288833Y370925D01*
X288840Y370962D01*
X288851Y370998D01*
X288877Y371082D01*
X288895Y371125D01*
X288920Y371169D01*
X288946Y371213D01*
X288975Y371260D01*
X289011Y371304D01*
X289051Y371344D01*
X289055Y371347D01*
X289062Y371355D01*
X289073Y371366D01*
X289091Y371377D01*
X289117Y371395D01*
X289142Y371413D01*
X289175Y371431D01*
X289212Y371453D01*
X289251Y371475D01*
X289295Y371493D01*
X289346Y371511D01*
X289397Y371530D01*
X289452Y371540D01*
X289514Y371551D01*
X289576Y371559D01*
X289641Y371562D01*
X289645D01*
X289652D01*
X289663D01*
X289681D01*
X289703Y371559D01*
D02*
G37*
G36*
X290456Y369298D02*
X289932Y368967D01*
X289929D01*
X289921Y368960D01*
X289910Y368952D01*
X289896Y368941D01*
X289856Y368916D01*
X289805Y368883D01*
X289750Y368843D01*
X289692Y368803D01*
X289637Y368763D01*
X289586Y368727D01*
X289583Y368723D01*
X289568Y368712D01*
X289546Y368694D01*
X289521Y368668D01*
X289466Y368614D01*
X289441Y368585D01*
X289419Y368556D01*
X289415Y368552D01*
X289412Y368545D01*
X289404Y368530D01*
X289393Y368508D01*
X289383Y368486D01*
X289372Y368461D01*
X289353Y368403D01*
Y368399D01*
X289350Y368392D01*
Y368377D01*
X289346Y368359D01*
X289342Y368334D01*
Y368304D01*
X289339Y368264D01*
Y367835D01*
X290456D01*
Y367500D01*
X287937D01*
Y368668D01*
X287941Y368698D01*
Y368730D01*
X287945Y368807D01*
X287956Y368887D01*
X287967Y368974D01*
X287985Y369054D01*
X287996Y369094D01*
X288007Y369127D01*
Y369131D01*
X288010Y369134D01*
X288021Y369156D01*
X288036Y369189D01*
X288061Y369229D01*
X288094Y369273D01*
X288138Y369320D01*
X288189Y369364D01*
X288247Y369407D01*
X288250D01*
X288254Y369411D01*
X288276Y369426D01*
X288312Y369440D01*
X288360Y369462D01*
X288414Y369480D01*
X288480Y369498D01*
X288549Y369509D01*
X288625Y369513D01*
X288629D01*
X288636D01*
X288651D01*
X288669Y369509D01*
X288695D01*
X288720Y369506D01*
X288782Y369491D01*
X288855Y369469D01*
X288931Y369440D01*
X289008Y369396D01*
X289044Y369367D01*
X289080Y369338D01*
X289084Y369335D01*
X289088Y369331D01*
X289099Y369320D01*
X289110Y369305D01*
X289124Y369287D01*
X289139Y369265D01*
X289157Y369236D01*
X289179Y369207D01*
X289197Y369171D01*
X289215Y369131D01*
X289237Y369087D01*
X289255Y369040D01*
X289270Y368985D01*
X289288Y368931D01*
X289299Y368869D01*
X289310Y368803D01*
X289313Y368810D01*
X289321Y368825D01*
X289335Y368847D01*
X289350Y368876D01*
X289390Y368941D01*
X289415Y368974D01*
X289437Y369003D01*
X289444Y369011D01*
X289463Y369029D01*
X289492Y369058D01*
X289528Y369094D01*
X289579Y369134D01*
X289634Y369182D01*
X289699Y369229D01*
X289772Y369280D01*
X290456Y369713D01*
Y369298D01*
D02*
G37*
G36*
X206920Y366332D02*
X206916Y366302D01*
Y366270D01*
X206912Y366193D01*
X206902Y366113D01*
X206891Y366026D01*
X206872Y365946D01*
X206861Y365906D01*
X206851Y365873D01*
Y365869D01*
X206847Y365866D01*
X206836Y365844D01*
X206821Y365811D01*
X206796Y365771D01*
X206763Y365727D01*
X206719Y365680D01*
X206668Y365636D01*
X206610Y365593D01*
X206607D01*
X206603Y365589D01*
X206581Y365575D01*
X206545Y365560D01*
X206497Y365538D01*
X206443Y365520D01*
X206377Y365502D01*
X206308Y365491D01*
X206232Y365487D01*
X206228D01*
X206221D01*
X206206D01*
X206188Y365491D01*
X206163D01*
X206137Y365494D01*
X206075Y365509D01*
X206002Y365531D01*
X205926Y365560D01*
X205850Y365604D01*
X205813Y365633D01*
X205777Y365662D01*
X205773Y365666D01*
X205769Y365669D01*
X205759Y365680D01*
X205748Y365695D01*
X205733Y365713D01*
X205718Y365735D01*
X205700Y365764D01*
X205678Y365793D01*
X205660Y365829D01*
X205642Y365869D01*
X205620Y365913D01*
X205602Y365960D01*
X205587Y366015D01*
X205569Y366070D01*
X205558Y366131D01*
X205547Y366197D01*
X205544Y366190D01*
X205537Y366175D01*
X205522Y366153D01*
X205507Y366124D01*
X205467Y366059D01*
X205442Y366026D01*
X205420Y365997D01*
X205413Y365989D01*
X205395Y365971D01*
X205365Y365942D01*
X205329Y365906D01*
X205278Y365866D01*
X205223Y365818D01*
X205158Y365771D01*
X205085Y365720D01*
X204401Y365287D01*
Y365702D01*
X204925Y366033D01*
X204929D01*
X204936Y366040D01*
X204947Y366048D01*
X204961Y366059D01*
X205001Y366084D01*
X205052Y366117D01*
X205107Y366157D01*
X205165Y366197D01*
X205220Y366237D01*
X205271Y366273D01*
X205274Y366277D01*
X205289Y366288D01*
X205311Y366306D01*
X205336Y366332D01*
X205391Y366386D01*
X205416Y366415D01*
X205438Y366444D01*
X205442Y366448D01*
X205446Y366455D01*
X205453Y366470D01*
X205464Y366492D01*
X205475Y366514D01*
X205486Y366539D01*
X205504Y366597D01*
Y366601D01*
X205507Y366608D01*
Y366623D01*
X205511Y366641D01*
X205515Y366667D01*
Y366696D01*
X205518Y366736D01*
Y367165D01*
X204401D01*
Y367500D01*
X206920D01*
Y366332D01*
D02*
G37*
G36*
X206141Y365087D02*
X206173Y365083D01*
X206213Y365079D01*
X206254Y365072D01*
X206301Y365061D01*
X206396Y365036D01*
X206447Y365018D01*
X206501Y364996D01*
X206552Y364970D01*
X206599Y364937D01*
X206650Y364905D01*
X206694Y364865D01*
X206698Y364861D01*
X206705Y364854D01*
X206716Y364843D01*
X206730Y364825D01*
X206749Y364803D01*
X206770Y364774D01*
X206789Y364745D01*
X206814Y364708D01*
X206836Y364672D01*
X206854Y364628D01*
X206894Y364530D01*
X206909Y364479D01*
X206920Y364421D01*
X206927Y364362D01*
X206931Y364300D01*
Y364275D01*
X206927Y364257D01*
Y364239D01*
X206923Y364213D01*
X206912Y364151D01*
X206898Y364082D01*
X206872Y364006D01*
X206840Y363929D01*
X206796Y363853D01*
Y363849D01*
X206789Y363845D01*
X206781Y363835D01*
X206770Y363820D01*
X206741Y363784D01*
X206701Y363736D01*
X206647Y363689D01*
X206581Y363634D01*
X206505Y363587D01*
X206417Y363543D01*
X206414D01*
X206406Y363540D01*
X206392Y363532D01*
X206374Y363525D01*
X206348Y363518D01*
X206315Y363507D01*
X206279Y363500D01*
X206239Y363489D01*
X206192Y363478D01*
X206137Y363467D01*
X206079Y363460D01*
X206017Y363452D01*
X205948Y363445D01*
X205875Y363438D01*
X205795Y363434D01*
X205711D01*
X205708D01*
X205689D01*
X205664D01*
X205631D01*
X205591Y363438D01*
X205544D01*
X205489Y363441D01*
X205434Y363449D01*
X205311Y363460D01*
X205180Y363478D01*
X205056Y363503D01*
X204994Y363522D01*
X204940Y363540D01*
X204936D01*
X204929Y363543D01*
X204914Y363551D01*
X204892Y363558D01*
X204870Y363569D01*
X204841Y363583D01*
X204779Y363620D01*
X204710Y363664D01*
X204637Y363715D01*
X204568Y363780D01*
X204506Y363853D01*
Y363856D01*
X204499Y363864D01*
X204492Y363875D01*
X204485Y363889D01*
X204474Y363911D01*
X204459Y363933D01*
X204445Y363962D01*
X204433Y363991D01*
X204404Y364060D01*
X204379Y364144D01*
X204364Y364235D01*
X204357Y364337D01*
Y364366D01*
X204361Y364384D01*
Y364410D01*
X204364Y364439D01*
X204379Y364508D01*
X204397Y364584D01*
X204426Y364665D01*
X204466Y364745D01*
X204492Y364785D01*
X204521Y364821D01*
X204524Y364825D01*
X204528Y364828D01*
X204539Y364839D01*
X204550Y364850D01*
X204568Y364865D01*
X204590Y364883D01*
X204641Y364919D01*
X204707Y364956D01*
X204787Y364992D01*
X204878Y365021D01*
X204983Y365043D01*
X205009Y364745D01*
X205005D01*
X204998Y364741D01*
X204991D01*
X204976Y364737D01*
X204936Y364726D01*
X204892Y364712D01*
X204841Y364694D01*
X204790Y364668D01*
X204743Y364639D01*
X204703Y364603D01*
X204699Y364599D01*
X204688Y364584D01*
X204674Y364559D01*
X204659Y364530D01*
X204641Y364490D01*
X204626Y364442D01*
X204615Y364388D01*
X204612Y364330D01*
Y364304D01*
X204615Y364279D01*
X204619Y364246D01*
X204626Y364206D01*
X204637Y364166D01*
X204652Y364122D01*
X204674Y364082D01*
X204677Y364078D01*
X204685Y364064D01*
X204699Y364042D01*
X204721Y364020D01*
X204747Y363991D01*
X204776Y363962D01*
X204808Y363933D01*
X204849Y363904D01*
X204852Y363900D01*
X204870Y363893D01*
X204896Y363878D01*
X204929Y363864D01*
X204972Y363845D01*
X205023Y363827D01*
X205082Y363809D01*
X205147Y363791D01*
X205151D01*
X205154Y363787D01*
X205165D01*
X205180Y363784D01*
X205216Y363776D01*
X205263Y363765D01*
X205322Y363758D01*
X205384Y363751D01*
X205453Y363747D01*
X205525Y363744D01*
X205529D01*
X205540D01*
X205558D01*
X205587D01*
X205580Y363747D01*
X205562Y363762D01*
X205537Y363784D01*
X205500Y363809D01*
X205464Y363845D01*
X205424Y363889D01*
X205384Y363940D01*
X205347Y363998D01*
X205344Y364006D01*
X205333Y364028D01*
X205318Y364060D01*
X205304Y364100D01*
X205285Y364155D01*
X205271Y364213D01*
X205260Y364279D01*
X205256Y364348D01*
Y364377D01*
X205260Y364399D01*
X205263Y364428D01*
X205267Y364457D01*
X205274Y364493D01*
X205285Y364530D01*
X205311Y364614D01*
X205329Y364657D01*
X205351Y364701D01*
X205376Y364748D01*
X205409Y364792D01*
X205442Y364836D01*
X205482Y364876D01*
X205486Y364879D01*
X205493Y364887D01*
X205504Y364894D01*
X205522Y364908D01*
X205547Y364927D01*
X205573Y364945D01*
X205606Y364963D01*
X205642Y364981D01*
X205682Y365003D01*
X205726Y365021D01*
X205777Y365039D01*
X205828Y365058D01*
X205886Y365072D01*
X205948Y365079D01*
X206010Y365087D01*
X206079Y365090D01*
X206083D01*
X206097D01*
X206115D01*
X206141Y365087D01*
D02*
G37*
G36*
X149500Y306938D02*
X148332D01*
X148302Y306941D01*
X148270D01*
X148193Y306945D01*
X148113Y306956D01*
X148026Y306967D01*
X147946Y306985D01*
X147906Y306996D01*
X147873Y307007D01*
X147869D01*
X147866Y307010D01*
X147844Y307021D01*
X147811Y307036D01*
X147771Y307061D01*
X147727Y307094D01*
X147680Y307138D01*
X147636Y307189D01*
X147593Y307247D01*
Y307250D01*
X147589Y307254D01*
X147574Y307276D01*
X147560Y307312D01*
X147538Y307360D01*
X147520Y307414D01*
X147502Y307480D01*
X147491Y307549D01*
X147487Y307625D01*
Y307629D01*
Y307636D01*
Y307651D01*
X147491Y307669D01*
Y307695D01*
X147494Y307720D01*
X147509Y307782D01*
X147531Y307855D01*
X147560Y307931D01*
X147604Y308008D01*
X147633Y308044D01*
X147662Y308080D01*
X147666Y308084D01*
X147669Y308088D01*
X147680Y308099D01*
X147695Y308109D01*
X147713Y308124D01*
X147735Y308139D01*
X147764Y308157D01*
X147793Y308179D01*
X147829Y308197D01*
X147869Y308215D01*
X147913Y308237D01*
X147960Y308255D01*
X148015Y308270D01*
X148070Y308288D01*
X148131Y308299D01*
X148197Y308310D01*
X148190Y308313D01*
X148175Y308321D01*
X148153Y308335D01*
X148124Y308350D01*
X148059Y308390D01*
X148026Y308415D01*
X147997Y308437D01*
X147989Y308444D01*
X147971Y308463D01*
X147942Y308492D01*
X147906Y308528D01*
X147866Y308579D01*
X147818Y308634D01*
X147771Y308699D01*
X147720Y308772D01*
X147287Y309456D01*
X147702D01*
X148033Y308932D01*
Y308928D01*
X148040Y308921D01*
X148048Y308910D01*
X148059Y308896D01*
X148084Y308856D01*
X148117Y308805D01*
X148157Y308750D01*
X148197Y308692D01*
X148237Y308637D01*
X148273Y308586D01*
X148277Y308583D01*
X148288Y308568D01*
X148306Y308546D01*
X148332Y308521D01*
X148386Y308466D01*
X148415Y308441D01*
X148444Y308419D01*
X148448Y308415D01*
X148455Y308412D01*
X148470Y308404D01*
X148492Y308394D01*
X148514Y308383D01*
X148539Y308372D01*
X148597Y308353D01*
X148601D01*
X148608Y308350D01*
X148623D01*
X148641Y308346D01*
X148667Y308343D01*
X148696D01*
X148736Y308339D01*
X149165D01*
Y309456D01*
X149500D01*
Y306938D01*
D02*
G37*
G36*
X146235Y307487D02*
X146239Y307491D01*
X146257Y307505D01*
X146279Y307527D01*
X146315Y307553D01*
X146355Y307585D01*
X146406Y307622D01*
X146464Y307662D01*
X146530Y307702D01*
X146533D01*
X146537Y307705D01*
X146559Y307720D01*
X146595Y307738D01*
X146639Y307760D01*
X146690Y307786D01*
X146745Y307811D01*
X146799Y307837D01*
X146854Y307858D01*
Y307560D01*
X146850D01*
X146843Y307553D01*
X146828Y307549D01*
X146810Y307538D01*
X146788Y307527D01*
X146763Y307513D01*
X146701Y307476D01*
X146628Y307436D01*
X146555Y307385D01*
X146479Y307327D01*
X146402Y307265D01*
X146399Y307261D01*
X146395Y307258D01*
X146384Y307247D01*
X146370Y307236D01*
X146337Y307200D01*
X146293Y307156D01*
X146249Y307105D01*
X146202Y307047D01*
X146162Y306988D01*
X146126Y306926D01*
X145925D01*
Y309456D01*
X146235D01*
Y307487D01*
D02*
G37*
G36*
X144371Y309496D02*
X144400Y309493D01*
X144437Y309486D01*
X144477Y309478D01*
X144520Y309467D01*
X144564Y309453D01*
X144612Y309438D01*
X144659Y309416D01*
X144706Y309391D01*
X144754Y309362D01*
X144801Y309325D01*
X144844Y309285D01*
X144885Y309242D01*
X144888Y309238D01*
X144895Y309227D01*
X144906Y309209D01*
X144924Y309180D01*
X144943Y309147D01*
X144961Y309103D01*
X144986Y309052D01*
X145008Y308994D01*
X145030Y308928D01*
X145052Y308852D01*
X145074Y308768D01*
X145092Y308674D01*
X145110Y308572D01*
X145121Y308463D01*
X145128Y308343D01*
X145132Y308215D01*
Y308211D01*
Y308197D01*
Y308171D01*
Y308142D01*
X145128Y308102D01*
Y308059D01*
X145125Y308011D01*
X145121Y307957D01*
X145110Y307844D01*
X145092Y307724D01*
X145070Y307604D01*
X145056Y307549D01*
X145041Y307494D01*
Y307491D01*
X145037Y307484D01*
X145030Y307469D01*
X145023Y307451D01*
X145016Y307425D01*
X145001Y307400D01*
X144972Y307338D01*
X144936Y307272D01*
X144888Y307203D01*
X144834Y307134D01*
X144768Y307076D01*
X144764D01*
X144761Y307068D01*
X144750Y307061D01*
X144735Y307054D01*
X144717Y307039D01*
X144695Y307029D01*
X144641Y306999D01*
X144575Y306974D01*
X144499Y306948D01*
X144408Y306934D01*
X144309Y306926D01*
X144277D01*
X144237Y306930D01*
X144189Y306938D01*
X144135Y306948D01*
X144076Y306963D01*
X144015Y306981D01*
X143956Y307010D01*
X143953D01*
X143949Y307014D01*
X143931Y307025D01*
X143902Y307043D01*
X143865Y307068D01*
X143825Y307105D01*
X143782Y307145D01*
X143742Y307192D01*
X143702Y307247D01*
X143698Y307254D01*
X143683Y307272D01*
X143669Y307305D01*
X143643Y307352D01*
X143621Y307407D01*
X143592Y307469D01*
X143567Y307542D01*
X143545Y307622D01*
Y307625D01*
X143541Y307633D01*
X143538Y307644D01*
X143534Y307662D01*
X143530Y307684D01*
X143527Y307709D01*
X143519Y307742D01*
X143516Y307778D01*
X143509Y307818D01*
X143505Y307862D01*
X143501Y307913D01*
X143494Y307964D01*
X143490Y308022D01*
Y308080D01*
X143487Y308146D01*
Y308215D01*
Y308219D01*
Y308233D01*
Y308259D01*
Y308288D01*
X143490Y308328D01*
Y308372D01*
X143494Y308419D01*
X143498Y308470D01*
X143509Y308586D01*
X143527Y308706D01*
X143549Y308823D01*
X143563Y308878D01*
X143581Y308932D01*
Y308936D01*
X143585Y308943D01*
X143592Y308958D01*
X143600Y308976D01*
X143607Y309001D01*
X143621Y309027D01*
X143650Y309089D01*
X143687Y309154D01*
X143734Y309227D01*
X143789Y309293D01*
X143854Y309354D01*
X143858D01*
X143862Y309362D01*
X143873Y309369D01*
X143887Y309376D01*
X143905Y309387D01*
X143924Y309402D01*
X143978Y309427D01*
X144044Y309453D01*
X144120Y309478D01*
X144211Y309493D01*
X144309Y309500D01*
X144346D01*
X144371Y309496D01*
D02*
G37*
G36*
X155033Y296500D02*
X154723D01*
Y298469D01*
X154720Y298465D01*
X154701Y298451D01*
X154680Y298429D01*
X154643Y298404D01*
X154603Y298371D01*
X154552Y298335D01*
X154494Y298294D01*
X154429Y298254D01*
X154425D01*
X154421Y298251D01*
X154399Y298236D01*
X154363Y298218D01*
X154319Y298196D01*
X154268Y298171D01*
X154214Y298145D01*
X154159Y298120D01*
X154104Y298098D01*
Y298396D01*
X154108D01*
X154115Y298404D01*
X154130Y298407D01*
X154148Y298418D01*
X154170Y298429D01*
X154196Y298444D01*
X154257Y298480D01*
X154330Y298520D01*
X154403Y298571D01*
X154480Y298629D01*
X154556Y298691D01*
X154560Y298695D01*
X154563Y298698D01*
X154574Y298709D01*
X154589Y298720D01*
X154621Y298757D01*
X154665Y298800D01*
X154709Y298851D01*
X154756Y298910D01*
X154796Y298968D01*
X154832Y299030D01*
X155033D01*
Y296500D01*
D02*
G37*
G36*
X153074D02*
X152765D01*
Y298469D01*
X152761Y298465D01*
X152743Y298451D01*
X152721Y298429D01*
X152685Y298404D01*
X152645Y298371D01*
X152594Y298335D01*
X152536Y298294D01*
X152470Y298254D01*
X152467D01*
X152463Y298251D01*
X152441Y298236D01*
X152405Y298218D01*
X152361Y298196D01*
X152310Y298171D01*
X152255Y298145D01*
X152201Y298120D01*
X152146Y298098D01*
Y298396D01*
X152150D01*
X152157Y298404D01*
X152172Y298407D01*
X152190Y298418D01*
X152212Y298429D01*
X152237Y298444D01*
X152299Y298480D01*
X152372Y298520D01*
X152445Y298571D01*
X152521Y298629D01*
X152598Y298691D01*
X152601Y298695D01*
X152605Y298698D01*
X152616Y298709D01*
X152630Y298720D01*
X152663Y298757D01*
X152707Y298800D01*
X152751Y298851D01*
X152798Y298910D01*
X152838Y298968D01*
X152874Y299030D01*
X153074D01*
Y296500D01*
D02*
G37*
G36*
X150698Y299015D02*
X150730D01*
X150807Y299011D01*
X150887Y299001D01*
X150974Y298990D01*
X151054Y298972D01*
X151094Y298961D01*
X151127Y298950D01*
X151131D01*
X151134Y298946D01*
X151156Y298935D01*
X151189Y298921D01*
X151229Y298895D01*
X151273Y298862D01*
X151320Y298819D01*
X151364Y298768D01*
X151407Y298709D01*
Y298706D01*
X151411Y298702D01*
X151426Y298680D01*
X151440Y298644D01*
X151462Y298597D01*
X151480Y298542D01*
X151498Y298477D01*
X151509Y298407D01*
X151513Y298331D01*
Y298327D01*
Y298320D01*
Y298305D01*
X151509Y298287D01*
Y298262D01*
X151506Y298236D01*
X151491Y298174D01*
X151469Y298101D01*
X151440Y298025D01*
X151396Y297949D01*
X151367Y297912D01*
X151338Y297876D01*
X151335Y297872D01*
X151331Y297869D01*
X151320Y297858D01*
X151305Y297847D01*
X151287Y297832D01*
X151265Y297818D01*
X151236Y297799D01*
X151207Y297778D01*
X151171Y297759D01*
X151131Y297741D01*
X151087Y297719D01*
X151040Y297701D01*
X150985Y297687D01*
X150931Y297668D01*
X150869Y297657D01*
X150803Y297646D01*
X150810Y297643D01*
X150825Y297636D01*
X150847Y297621D01*
X150876Y297606D01*
X150941Y297567D01*
X150974Y297541D01*
X151003Y297519D01*
X151011Y297512D01*
X151029Y297494D01*
X151058Y297465D01*
X151094Y297428D01*
X151134Y297377D01*
X151182Y297323D01*
X151229Y297257D01*
X151280Y297184D01*
X151713Y296500D01*
X151298D01*
X150967Y297024D01*
Y297028D01*
X150960Y297035D01*
X150952Y297046D01*
X150941Y297060D01*
X150916Y297101D01*
X150883Y297151D01*
X150843Y297206D01*
X150803Y297264D01*
X150763Y297319D01*
X150727Y297370D01*
X150723Y297374D01*
X150712Y297388D01*
X150694Y297410D01*
X150668Y297435D01*
X150614Y297490D01*
X150585Y297516D01*
X150556Y297537D01*
X150552Y297541D01*
X150545Y297545D01*
X150530Y297552D01*
X150508Y297563D01*
X150486Y297574D01*
X150461Y297585D01*
X150403Y297603D01*
X150399D01*
X150392Y297606D01*
X150377D01*
X150359Y297610D01*
X150333Y297614D01*
X150304D01*
X150264Y297617D01*
X149835D01*
Y296500D01*
X149500D01*
Y299019D01*
X150668D01*
X150698Y299015D01*
D02*
G37*
G36*
X289387Y277996D02*
X289423D01*
X289460Y277993D01*
X289507Y277989D01*
X289554Y277982D01*
X289660Y277964D01*
X289776Y277938D01*
X289893Y277902D01*
X290006Y277851D01*
X290009Y277847D01*
X290020Y277843D01*
X290035Y277836D01*
X290053Y277822D01*
X290078Y277807D01*
X290107Y277789D01*
X290173Y277742D01*
X290246Y277680D01*
X290319Y277607D01*
X290391Y277523D01*
X290453Y277425D01*
X290457Y277421D01*
X290461Y277410D01*
X290468Y277396D01*
X290479Y277378D01*
X290490Y277348D01*
X290501Y277319D01*
X290515Y277283D01*
X290530Y277243D01*
X290544Y277199D01*
X290559Y277152D01*
X290581Y277050D01*
X290599Y276934D01*
X290606Y276813D01*
Y276777D01*
X290603Y276751D01*
X290599Y276719D01*
X290595Y276679D01*
X290592Y276639D01*
X290581Y276591D01*
X290559Y276493D01*
X290526Y276384D01*
X290504Y276329D01*
X290479Y276278D01*
X290446Y276227D01*
X290413Y276176D01*
X290410Y276173D01*
X290406Y276166D01*
X290395Y276151D01*
X290377Y276133D01*
X290359Y276115D01*
X290333Y276089D01*
X290304Y276063D01*
X290275Y276034D01*
X290238Y276005D01*
X290195Y275976D01*
X290151Y275943D01*
X290104Y275914D01*
X290049Y275889D01*
X289995Y275860D01*
X289936Y275838D01*
X289871Y275816D01*
X289794Y276144D01*
X289798D01*
X289805Y276147D01*
X289820Y276155D01*
X289838Y276162D01*
X289860Y276169D01*
X289889Y276180D01*
X289947Y276209D01*
X290013Y276246D01*
X290078Y276289D01*
X290140Y276344D01*
X290195Y276402D01*
X290202Y276409D01*
X290217Y276431D01*
X290235Y276468D01*
X290260Y276515D01*
X290282Y276577D01*
X290304Y276646D01*
X290319Y276730D01*
X290322Y276821D01*
Y276850D01*
X290319Y276868D01*
Y276893D01*
X290315Y276923D01*
X290304Y276992D01*
X290289Y277068D01*
X290264Y277148D01*
X290228Y277232D01*
X290180Y277308D01*
Y277312D01*
X290173Y277316D01*
X290155Y277341D01*
X290126Y277374D01*
X290082Y277414D01*
X290027Y277461D01*
X289966Y277505D01*
X289889Y277545D01*
X289805Y277581D01*
X289802D01*
X289794Y277585D01*
X289784Y277589D01*
X289765Y277592D01*
X289743Y277600D01*
X289718Y277607D01*
X289656Y277618D01*
X289583Y277632D01*
X289503Y277647D01*
X289416Y277654D01*
X289321Y277658D01*
X289318D01*
X289307D01*
X289288D01*
X289267D01*
X289241Y277654D01*
X289208D01*
X289172Y277651D01*
X289132Y277647D01*
X289045Y277636D01*
X288950Y277618D01*
X288855Y277596D01*
X288761Y277567D01*
X288757D01*
X288750Y277563D01*
X288739Y277556D01*
X288721Y277549D01*
X288677Y277527D01*
X288626Y277494D01*
X288568Y277454D01*
X288506Y277403D01*
X288451Y277345D01*
X288400Y277276D01*
Y277272D01*
X288397Y277265D01*
X288389Y277254D01*
X288382Y277239D01*
X288375Y277221D01*
X288364Y277199D01*
X288342Y277148D01*
X288320Y277083D01*
X288302Y277010D01*
X288287Y276930D01*
X288284Y276846D01*
Y276821D01*
X288287Y276799D01*
Y276773D01*
X288291Y276748D01*
X288306Y276682D01*
X288324Y276606D01*
X288353Y276530D01*
X288393Y276449D01*
X288415Y276409D01*
X288444Y276373D01*
X288448Y276369D01*
X288451Y276366D01*
X288462Y276355D01*
X288473Y276340D01*
X288491Y276326D01*
X288513Y276307D01*
X288535Y276286D01*
X288564Y276267D01*
X288597Y276246D01*
X288633Y276220D01*
X288670Y276198D01*
X288713Y276176D01*
X288761Y276158D01*
X288812Y276140D01*
X288866Y276122D01*
X288925Y276107D01*
X288841Y275772D01*
X288837D01*
X288823Y275776D01*
X288801Y275783D01*
X288772Y275794D01*
X288739Y275805D01*
X288699Y275820D01*
X288655Y275838D01*
X288608Y275860D01*
X288506Y275911D01*
X288404Y275976D01*
X288353Y276016D01*
X288302Y276056D01*
X288258Y276100D01*
X288215Y276151D01*
X288211Y276155D01*
X288204Y276162D01*
X288196Y276180D01*
X288182Y276198D01*
X288164Y276227D01*
X288146Y276256D01*
X288127Y276296D01*
X288109Y276337D01*
X288087Y276384D01*
X288069Y276435D01*
X288051Y276489D01*
X288033Y276548D01*
X288018Y276609D01*
X288011Y276675D01*
X288004Y276744D01*
X288000Y276817D01*
Y276857D01*
X288004Y276886D01*
Y276919D01*
X288007Y276959D01*
X288015Y277003D01*
X288022Y277054D01*
X288040Y277159D01*
X288069Y277268D01*
X288109Y277378D01*
X288135Y277429D01*
X288164Y277480D01*
X288167Y277483D01*
X288171Y277490D01*
X288182Y277505D01*
X288196Y277519D01*
X288211Y277541D01*
X288233Y277567D01*
X288258Y277596D01*
X288287Y277625D01*
X288320Y277654D01*
X288353Y277687D01*
X288437Y277752D01*
X288535Y277814D01*
X288644Y277869D01*
X288648D01*
X288659Y277876D01*
X288677Y277880D01*
X288699Y277891D01*
X288728Y277898D01*
X288764Y277909D01*
X288804Y277924D01*
X288848Y277935D01*
X288895Y277945D01*
X288950Y277960D01*
X289063Y277978D01*
X289190Y277993D01*
X289321Y278000D01*
X289325D01*
X289339D01*
X289361D01*
X289387Y277996D01*
D02*
G37*
G36*
X290563Y274440D02*
Y274189D01*
X288932D01*
Y273847D01*
X288648D01*
Y274189D01*
X288044D01*
Y274498D01*
X288648D01*
Y275594D01*
X288932D01*
X290563Y274440D01*
D02*
G37*
G36*
X278705Y366332D02*
X278702Y366302D01*
Y366270D01*
X278698Y366193D01*
X278687Y366113D01*
X278676Y366026D01*
X278658Y365946D01*
X278647Y365906D01*
X278636Y365873D01*
Y365869D01*
X278632Y365866D01*
X278622Y365844D01*
X278607Y365811D01*
X278582Y365771D01*
X278549Y365727D01*
X278505Y365680D01*
X278454Y365636D01*
X278396Y365593D01*
X278392D01*
X278389Y365589D01*
X278367Y365575D01*
X278330Y365560D01*
X278283Y365538D01*
X278228Y365520D01*
X278163Y365502D01*
X278094Y365491D01*
X278017Y365487D01*
X278014D01*
X278007D01*
X277992D01*
X277974Y365491D01*
X277948D01*
X277923Y365494D01*
X277861Y365509D01*
X277788Y365531D01*
X277712Y365560D01*
X277635Y365604D01*
X277599Y365633D01*
X277562Y365662D01*
X277559Y365666D01*
X277555Y365669D01*
X277544Y365680D01*
X277533Y365695D01*
X277519Y365713D01*
X277504Y365735D01*
X277486Y365764D01*
X277464Y365793D01*
X277446Y365829D01*
X277428Y365869D01*
X277406Y365913D01*
X277388Y365960D01*
X277373Y366015D01*
X277355Y366070D01*
X277344Y366131D01*
X277333Y366197D01*
X277329Y366190D01*
X277322Y366175D01*
X277308Y366153D01*
X277293Y366124D01*
X277253Y366059D01*
X277227Y366026D01*
X277206Y365997D01*
X277198Y365989D01*
X277180Y365971D01*
X277151Y365942D01*
X277115Y365906D01*
X277064Y365866D01*
X277009Y365818D01*
X276944Y365771D01*
X276871Y365720D01*
X276186Y365287D01*
Y365702D01*
X276711Y366033D01*
X276714D01*
X276722Y366040D01*
X276732Y366048D01*
X276747Y366059D01*
X276787Y366084D01*
X276838Y366117D01*
X276893Y366157D01*
X276951Y366197D01*
X277006Y366237D01*
X277056Y366273D01*
X277060Y366277D01*
X277075Y366288D01*
X277097Y366306D01*
X277122Y366332D01*
X277176Y366386D01*
X277202Y366415D01*
X277224Y366444D01*
X277227Y366448D01*
X277231Y366455D01*
X277238Y366470D01*
X277249Y366492D01*
X277260Y366514D01*
X277271Y366539D01*
X277289Y366597D01*
Y366601D01*
X277293Y366608D01*
Y366623D01*
X277297Y366641D01*
X277300Y366667D01*
Y366696D01*
X277304Y366736D01*
Y367165D01*
X276186D01*
Y367500D01*
X278705D01*
Y366332D01*
D02*
G37*
G36*
X276871Y364766D02*
X276867D01*
X276860D01*
X276849Y364763D01*
X276831Y364759D01*
X276791Y364748D01*
X276736Y364734D01*
X276681Y364712D01*
X276620Y364683D01*
X276565Y364646D01*
X276514Y364603D01*
X276510Y364595D01*
X276496Y364581D01*
X276478Y364552D01*
X276456Y364512D01*
X276434Y364468D01*
X276416Y364413D01*
X276401Y364351D01*
X276398Y364282D01*
Y364260D01*
X276401Y364246D01*
X276405Y364202D01*
X276419Y364151D01*
X276438Y364089D01*
X276467Y364028D01*
X276510Y363962D01*
X276536Y363933D01*
X276565Y363904D01*
X276569Y363900D01*
X276572Y363896D01*
X276583Y363889D01*
X276594Y363878D01*
X276634Y363853D01*
X276685Y363824D01*
X276747Y363798D01*
X276823Y363773D01*
X276915Y363755D01*
X276962Y363747D01*
X277013D01*
X277016D01*
X277024D01*
X277038D01*
X277056Y363751D01*
X277078D01*
X277104Y363755D01*
X277162Y363765D01*
X277231Y363784D01*
X277300Y363809D01*
X277366Y363845D01*
X277428Y363896D01*
X277431D01*
X277435Y363904D01*
X277453Y363922D01*
X277479Y363955D01*
X277508Y363998D01*
X277533Y364057D01*
X277559Y364122D01*
X277577Y364198D01*
X277584Y364242D01*
Y364311D01*
X277581Y364340D01*
X277577Y364377D01*
X277566Y364421D01*
X277555Y364464D01*
X277537Y364512D01*
X277515Y364559D01*
X277511Y364563D01*
X277504Y364577D01*
X277486Y364599D01*
X277468Y364628D01*
X277442Y364657D01*
X277410Y364686D01*
X277377Y364719D01*
X277337Y364744D01*
X277377Y365036D01*
X278673Y364792D01*
Y363540D01*
X278378D01*
Y364548D01*
X277697Y364683D01*
X277701Y364679D01*
X277704Y364672D01*
X277712Y364661D01*
X277723Y364643D01*
X277733Y364621D01*
X277748Y364595D01*
X277777Y364537D01*
X277806Y364464D01*
X277832Y364384D01*
X277850Y364297D01*
X277857Y364253D01*
Y364173D01*
X277854Y364151D01*
X277850Y364122D01*
X277846Y364089D01*
X277839Y364053D01*
X277828Y364013D01*
X277803Y363926D01*
X277784Y363878D01*
X277759Y363831D01*
X277733Y363784D01*
X277704Y363736D01*
X277668Y363693D01*
X277628Y363649D01*
X277624Y363645D01*
X277617Y363638D01*
X277606Y363627D01*
X277588Y363613D01*
X277562Y363594D01*
X277537Y363576D01*
X277504Y363554D01*
X277468Y363532D01*
X277428Y363514D01*
X277384Y363492D01*
X277333Y363474D01*
X277282Y363456D01*
X277227Y363441D01*
X277166Y363431D01*
X277104Y363423D01*
X277038Y363420D01*
X277035D01*
X277024D01*
X277006D01*
X276980Y363423D01*
X276951Y363427D01*
X276918Y363431D01*
X276878Y363438D01*
X276838Y363445D01*
X276743Y363467D01*
X276645Y363503D01*
X276594Y363525D01*
X276547Y363554D01*
X276496Y363583D01*
X276448Y363620D01*
X276445Y363623D01*
X276434Y363631D01*
X276419Y363645D01*
X276401Y363664D01*
X276379Y363689D01*
X276350Y363718D01*
X276325Y363755D01*
X276296Y363794D01*
X276267Y363838D01*
X276241Y363889D01*
X276216Y363944D01*
X276190Y364002D01*
X276172Y364064D01*
X276157Y364133D01*
X276146Y364206D01*
X276143Y364282D01*
Y364315D01*
X276146Y364340D01*
X276150Y364370D01*
X276154Y364402D01*
X276157Y364442D01*
X276168Y364482D01*
X276190Y364574D01*
X276223Y364665D01*
X276245Y364712D01*
X276270Y364759D01*
X276299Y364803D01*
X276332Y364846D01*
X276336Y364850D01*
X276339Y364857D01*
X276354Y364865D01*
X276368Y364879D01*
X276387Y364897D01*
X276409Y364916D01*
X276438Y364937D01*
X276470Y364956D01*
X276503Y364978D01*
X276543Y364999D01*
X276630Y365039D01*
X276732Y365072D01*
X276787Y365083D01*
X276845Y365090D01*
X276871Y364766D01*
D02*
G37*
G36*
X192519Y366332D02*
X192515Y366302D01*
Y366270D01*
X192512Y366193D01*
X192501Y366113D01*
X192490Y366026D01*
X192472Y365946D01*
X192461Y365906D01*
X192450Y365873D01*
Y365869D01*
X192446Y365866D01*
X192435Y365844D01*
X192421Y365811D01*
X192395Y365771D01*
X192362Y365727D01*
X192319Y365680D01*
X192268Y365636D01*
X192209Y365593D01*
X192206D01*
X192202Y365589D01*
X192180Y365575D01*
X192144Y365560D01*
X192097Y365538D01*
X192042Y365520D01*
X191976Y365502D01*
X191907Y365491D01*
X191831Y365487D01*
X191827D01*
X191820D01*
X191805D01*
X191787Y365491D01*
X191762D01*
X191736Y365494D01*
X191674Y365509D01*
X191602Y365531D01*
X191525Y365560D01*
X191449Y365604D01*
X191412Y365633D01*
X191376Y365662D01*
X191372Y365666D01*
X191369Y365669D01*
X191358Y365680D01*
X191347Y365695D01*
X191332Y365713D01*
X191318Y365735D01*
X191299Y365764D01*
X191278Y365793D01*
X191259Y365829D01*
X191241Y365869D01*
X191219Y365913D01*
X191201Y365960D01*
X191187Y366015D01*
X191168Y366070D01*
X191157Y366131D01*
X191147Y366197D01*
X191143Y366190D01*
X191136Y366175D01*
X191121Y366153D01*
X191106Y366124D01*
X191067Y366059D01*
X191041Y366026D01*
X191019Y365997D01*
X191012Y365989D01*
X190994Y365971D01*
X190965Y365942D01*
X190928Y365906D01*
X190877Y365866D01*
X190823Y365818D01*
X190757Y365771D01*
X190684Y365720D01*
X190000Y365287D01*
Y365702D01*
X190524Y366033D01*
X190528D01*
X190535Y366040D01*
X190546Y366048D01*
X190560Y366059D01*
X190601Y366084D01*
X190652Y366117D01*
X190706Y366157D01*
X190764Y366197D01*
X190819Y366237D01*
X190870Y366273D01*
X190874Y366277D01*
X190888Y366288D01*
X190910Y366306D01*
X190935Y366332D01*
X190990Y366386D01*
X191016Y366415D01*
X191037Y366444D01*
X191041Y366448D01*
X191045Y366455D01*
X191052Y366470D01*
X191063Y366492D01*
X191074Y366514D01*
X191085Y366539D01*
X191103Y366597D01*
Y366601D01*
X191106Y366608D01*
Y366623D01*
X191110Y366641D01*
X191114Y366667D01*
Y366696D01*
X191117Y366736D01*
Y367165D01*
X190000D01*
Y367500D01*
X192519D01*
Y366332D01*
D02*
G37*
G36*
X192486Y363438D02*
X192242D01*
X192239Y363441D01*
X192231Y363449D01*
X192217Y363463D01*
X192195Y363478D01*
X192169Y363500D01*
X192140Y363529D01*
X192104Y363558D01*
X192060Y363591D01*
X192016Y363623D01*
X191966Y363664D01*
X191907Y363703D01*
X191849Y363744D01*
X191783Y363787D01*
X191714Y363831D01*
X191638Y363875D01*
X191561Y363918D01*
X191558Y363922D01*
X191543Y363929D01*
X191522Y363940D01*
X191489Y363958D01*
X191449Y363977D01*
X191405Y363998D01*
X191354Y364024D01*
X191296Y364049D01*
X191230Y364078D01*
X191165Y364111D01*
X191092Y364140D01*
X191016Y364169D01*
X190859Y364228D01*
X190692Y364282D01*
X190688D01*
X190677Y364286D01*
X190659Y364290D01*
X190637Y364297D01*
X190608Y364304D01*
X190571Y364311D01*
X190531Y364322D01*
X190488Y364330D01*
X190437Y364340D01*
X190382Y364351D01*
X190266Y364370D01*
X190138Y364388D01*
X190000Y364399D01*
Y364715D01*
X190004D01*
X190015D01*
X190029D01*
X190051Y364712D01*
X190080D01*
X190116Y364708D01*
X190156Y364704D01*
X190200Y364701D01*
X190251Y364694D01*
X190302Y364686D01*
X190364Y364675D01*
X190426Y364665D01*
X190491Y364653D01*
X190564Y364639D01*
X190713Y364603D01*
X190717D01*
X190732Y364599D01*
X190753Y364592D01*
X190786Y364581D01*
X190823Y364570D01*
X190866Y364555D01*
X190917Y364541D01*
X190972Y364519D01*
X191034Y364497D01*
X191096Y364475D01*
X191234Y364421D01*
X191379Y364355D01*
X191525Y364282D01*
X191529Y364279D01*
X191543Y364271D01*
X191561Y364260D01*
X191591Y364246D01*
X191623Y364228D01*
X191663Y364202D01*
X191707Y364177D01*
X191754Y364148D01*
X191860Y364078D01*
X191969Y364006D01*
X192082Y363922D01*
X192188Y363835D01*
Y365069D01*
X192486D01*
Y363438D01*
D02*
G37*
G36*
X150198Y325559D02*
X150230D01*
X150307Y325555D01*
X150387Y325544D01*
X150474Y325533D01*
X150554Y325515D01*
X150594Y325504D01*
X150627Y325493D01*
X150631D01*
X150634Y325490D01*
X150656Y325479D01*
X150689Y325464D01*
X150729Y325439D01*
X150773Y325406D01*
X150820Y325362D01*
X150864Y325311D01*
X150907Y325253D01*
Y325250D01*
X150911Y325246D01*
X150926Y325224D01*
X150940Y325188D01*
X150962Y325140D01*
X150980Y325086D01*
X150998Y325020D01*
X151009Y324951D01*
X151013Y324874D01*
Y324871D01*
Y324864D01*
Y324849D01*
X151009Y324831D01*
Y324805D01*
X151006Y324780D01*
X150991Y324718D01*
X150969Y324645D01*
X150940Y324569D01*
X150896Y324492D01*
X150867Y324456D01*
X150838Y324419D01*
X150835Y324416D01*
X150831Y324412D01*
X150820Y324401D01*
X150805Y324390D01*
X150787Y324376D01*
X150765Y324361D01*
X150736Y324343D01*
X150707Y324321D01*
X150671Y324303D01*
X150631Y324285D01*
X150587Y324263D01*
X150540Y324245D01*
X150485Y324230D01*
X150431Y324212D01*
X150369Y324201D01*
X150303Y324190D01*
X150310Y324187D01*
X150325Y324179D01*
X150347Y324165D01*
X150376Y324150D01*
X150441Y324110D01*
X150474Y324085D01*
X150503Y324063D01*
X150511Y324056D01*
X150529Y324037D01*
X150558Y324008D01*
X150594Y323972D01*
X150634Y323921D01*
X150682Y323866D01*
X150729Y323801D01*
X150780Y323728D01*
X151213Y323044D01*
X150798D01*
X150467Y323568D01*
Y323571D01*
X150460Y323579D01*
X150452Y323590D01*
X150441Y323604D01*
X150416Y323644D01*
X150383Y323695D01*
X150343Y323750D01*
X150303Y323808D01*
X150263Y323863D01*
X150227Y323914D01*
X150223Y323917D01*
X150212Y323932D01*
X150194Y323954D01*
X150168Y323979D01*
X150114Y324034D01*
X150085Y324059D01*
X150056Y324081D01*
X150052Y324085D01*
X150045Y324088D01*
X150030Y324096D01*
X150008Y324107D01*
X149986Y324117D01*
X149961Y324128D01*
X149903Y324147D01*
X149899D01*
X149892Y324150D01*
X149877D01*
X149859Y324154D01*
X149834Y324158D01*
X149804D01*
X149764Y324161D01*
X149335D01*
Y323044D01*
X149000D01*
Y325563D01*
X150168D01*
X150198Y325559D01*
D02*
G37*
G36*
X152283Y325570D02*
X152312Y325566D01*
X152345Y325563D01*
X152382Y325559D01*
X152418Y325548D01*
X152505Y325526D01*
X152593Y325493D01*
X152636Y325471D01*
X152680Y325446D01*
X152720Y325413D01*
X152760Y325380D01*
X152764Y325377D01*
X152767Y325373D01*
X152778Y325362D01*
X152793Y325348D01*
X152807Y325326D01*
X152826Y325304D01*
X152862Y325250D01*
X152898Y325180D01*
X152931Y325100D01*
X152957Y325009D01*
X152960Y324962D01*
X152964Y324911D01*
Y324907D01*
Y324904D01*
Y324882D01*
X152960Y324849D01*
X152953Y324809D01*
X152942Y324758D01*
X152924Y324707D01*
X152902Y324656D01*
X152869Y324605D01*
X152866Y324598D01*
X152851Y324583D01*
X152829Y324562D01*
X152800Y324532D01*
X152760Y324500D01*
X152713Y324467D01*
X152658Y324434D01*
X152593Y324405D01*
X152596D01*
X152603Y324401D01*
X152614Y324398D01*
X152629Y324390D01*
X152673Y324372D01*
X152724Y324347D01*
X152778Y324310D01*
X152837Y324270D01*
X152891Y324219D01*
X152942Y324161D01*
Y324158D01*
X152946Y324154D01*
X152960Y324132D01*
X152982Y324096D01*
X153004Y324048D01*
X153026Y323990D01*
X153048Y323921D01*
X153062Y323844D01*
X153066Y323761D01*
Y323757D01*
Y323746D01*
Y323728D01*
X153062Y323706D01*
X153059Y323681D01*
X153055Y323648D01*
X153048Y323611D01*
X153037Y323571D01*
X153011Y323488D01*
X152993Y323440D01*
X152968Y323397D01*
X152942Y323349D01*
X152913Y323306D01*
X152876Y323262D01*
X152837Y323218D01*
X152833Y323215D01*
X152826Y323207D01*
X152815Y323197D01*
X152796Y323186D01*
X152771Y323167D01*
X152745Y323149D01*
X152713Y323131D01*
X152676Y323109D01*
X152636Y323087D01*
X152589Y323069D01*
X152538Y323051D01*
X152487Y323033D01*
X152429Y323022D01*
X152367Y323011D01*
X152305Y323004D01*
X152236Y323000D01*
X152199D01*
X152174Y323004D01*
X152141Y323007D01*
X152105Y323011D01*
X152065Y323018D01*
X152021Y323029D01*
X151923Y323055D01*
X151872Y323073D01*
X151825Y323091D01*
X151774Y323116D01*
X151723Y323146D01*
X151675Y323178D01*
X151632Y323218D01*
X151628Y323222D01*
X151621Y323229D01*
X151610Y323240D01*
X151595Y323258D01*
X151581Y323280D01*
X151559Y323306D01*
X151541Y323335D01*
X151519Y323371D01*
X151497Y323408D01*
X151479Y323451D01*
X151442Y323542D01*
X151428Y323597D01*
X151417Y323652D01*
X151410Y323710D01*
X151406Y323768D01*
Y323772D01*
Y323779D01*
Y323794D01*
X151410Y323808D01*
Y323830D01*
X151413Y323855D01*
X151421Y323914D01*
X151435Y323979D01*
X151457Y324045D01*
X151490Y324114D01*
X151530Y324179D01*
Y324183D01*
X151537Y324187D01*
X151552Y324205D01*
X151581Y324234D01*
X151621Y324270D01*
X151672Y324307D01*
X151734Y324347D01*
X151803Y324379D01*
X151886Y324405D01*
X151883D01*
X151879Y324409D01*
X151868Y324412D01*
X151854Y324419D01*
X151821Y324434D01*
X151777Y324456D01*
X151730Y324485D01*
X151683Y324521D01*
X151639Y324562D01*
X151599Y324605D01*
X151595Y324612D01*
X151584Y324627D01*
X151570Y324656D01*
X151555Y324693D01*
X151537Y324740D01*
X151523Y324795D01*
X151512Y324856D01*
X151508Y324922D01*
Y324925D01*
Y324933D01*
Y324947D01*
X151512Y324969D01*
X151515Y324991D01*
X151519Y325020D01*
X151533Y325082D01*
X151555Y325155D01*
X151592Y325231D01*
X151613Y325271D01*
X151639Y325311D01*
X151672Y325348D01*
X151705Y325384D01*
X151708Y325388D01*
X151715Y325391D01*
X151726Y325402D01*
X151741Y325413D01*
X151759Y325428D01*
X151785Y325442D01*
X151814Y325461D01*
X151843Y325479D01*
X151879Y325497D01*
X151919Y325515D01*
X151963Y325530D01*
X152010Y325544D01*
X152112Y325566D01*
X152170Y325570D01*
X152229Y325573D01*
X152261D01*
X152283Y325570D01*
D02*
G37*
G36*
X290456Y318367D02*
X288487D01*
X288491Y318363D01*
X288505Y318345D01*
X288527Y318323D01*
X288553Y318287D01*
X288585Y318247D01*
X288622Y318196D01*
X288662Y318138D01*
X288702Y318072D01*
Y318069D01*
X288705Y318065D01*
X288720Y318043D01*
X288738Y318007D01*
X288760Y317963D01*
X288786Y317912D01*
X288811Y317857D01*
X288837Y317803D01*
X288858Y317748D01*
X288560D01*
Y317752D01*
X288553Y317759D01*
X288549Y317774D01*
X288538Y317792D01*
X288527Y317814D01*
X288513Y317839D01*
X288476Y317901D01*
X288436Y317974D01*
X288385Y318047D01*
X288327Y318123D01*
X288265Y318199D01*
X288261Y318203D01*
X288258Y318207D01*
X288247Y318218D01*
X288236Y318232D01*
X288199Y318265D01*
X288156Y318309D01*
X288105Y318352D01*
X288047Y318400D01*
X287988Y318440D01*
X287927Y318476D01*
Y318676D01*
X290456D01*
Y318367D01*
D02*
G37*
G36*
X289677Y317224D02*
X289699Y317217D01*
X289728Y317206D01*
X289761Y317195D01*
X289801Y317180D01*
X289845Y317162D01*
X289892Y317140D01*
X289994Y317089D01*
X290096Y317024D01*
X290147Y316984D01*
X290198Y316944D01*
X290242Y316900D01*
X290285Y316849D01*
X290289Y316845D01*
X290296Y316838D01*
X290303Y316820D01*
X290318Y316802D01*
X290336Y316773D01*
X290354Y316743D01*
X290373Y316704D01*
X290391Y316663D01*
X290413Y316616D01*
X290431Y316565D01*
X290449Y316511D01*
X290467Y316452D01*
X290482Y316390D01*
X290489Y316325D01*
X290496Y316256D01*
X290500Y316183D01*
Y316143D01*
X290496Y316114D01*
Y316081D01*
X290493Y316041D01*
X290486Y315997D01*
X290478Y315946D01*
X290460Y315841D01*
X290431Y315732D01*
X290391Y315622D01*
X290365Y315571D01*
X290336Y315521D01*
X290333Y315517D01*
X290329Y315510D01*
X290318Y315495D01*
X290303Y315480D01*
X290289Y315459D01*
X290267Y315433D01*
X290242Y315404D01*
X290212Y315375D01*
X290180Y315346D01*
X290147Y315313D01*
X290063Y315248D01*
X289965Y315186D01*
X289856Y315131D01*
X289852D01*
X289841Y315124D01*
X289823Y315120D01*
X289801Y315109D01*
X289772Y315102D01*
X289736Y315091D01*
X289696Y315076D01*
X289652Y315066D01*
X289605Y315055D01*
X289550Y315040D01*
X289437Y315022D01*
X289310Y315007D01*
X289179Y315000D01*
X289175D01*
X289160D01*
X289139D01*
X289113Y315004D01*
X289077D01*
X289040Y315007D01*
X288993Y315011D01*
X288946Y315018D01*
X288840Y315036D01*
X288724Y315062D01*
X288607Y315098D01*
X288494Y315149D01*
X288491Y315153D01*
X288480Y315157D01*
X288465Y315164D01*
X288447Y315178D01*
X288422Y315193D01*
X288392Y315211D01*
X288327Y315258D01*
X288254Y315320D01*
X288181Y315393D01*
X288109Y315477D01*
X288047Y315575D01*
X288043Y315579D01*
X288039Y315590D01*
X288032Y315604D01*
X288021Y315622D01*
X288010Y315651D01*
X287999Y315681D01*
X287985Y315717D01*
X287970Y315757D01*
X287956Y315801D01*
X287941Y315848D01*
X287919Y315950D01*
X287901Y316067D01*
X287894Y316187D01*
Y316223D01*
X287897Y316248D01*
X287901Y316281D01*
X287905Y316321D01*
X287908Y316361D01*
X287919Y316409D01*
X287941Y316507D01*
X287974Y316616D01*
X287996Y316671D01*
X288021Y316722D01*
X288054Y316773D01*
X288087Y316824D01*
X288090Y316827D01*
X288094Y316834D01*
X288105Y316849D01*
X288123Y316867D01*
X288141Y316885D01*
X288167Y316911D01*
X288196Y316936D01*
X288225Y316966D01*
X288261Y316995D01*
X288305Y317024D01*
X288349Y317057D01*
X288396Y317086D01*
X288451Y317111D01*
X288505Y317140D01*
X288563Y317162D01*
X288629Y317184D01*
X288705Y316856D01*
X288702D01*
X288695Y316853D01*
X288680Y316845D01*
X288662Y316838D01*
X288640Y316831D01*
X288611Y316820D01*
X288553Y316791D01*
X288487Y316754D01*
X288422Y316711D01*
X288360Y316656D01*
X288305Y316598D01*
X288298Y316591D01*
X288283Y316569D01*
X288265Y316532D01*
X288240Y316485D01*
X288218Y316423D01*
X288196Y316354D01*
X288181Y316270D01*
X288178Y316179D01*
Y316150D01*
X288181Y316132D01*
Y316107D01*
X288185Y316077D01*
X288196Y316008D01*
X288211Y315932D01*
X288236Y315852D01*
X288272Y315768D01*
X288320Y315692D01*
Y315688D01*
X288327Y315684D01*
X288345Y315659D01*
X288374Y315626D01*
X288418Y315586D01*
X288473Y315539D01*
X288534Y315495D01*
X288611Y315455D01*
X288695Y315419D01*
X288698D01*
X288705Y315415D01*
X288716Y315411D01*
X288735Y315408D01*
X288756Y315400D01*
X288782Y315393D01*
X288844Y315382D01*
X288917Y315368D01*
X288997Y315353D01*
X289084Y315346D01*
X289179Y315342D01*
X289182D01*
X289193D01*
X289212D01*
X289233D01*
X289259Y315346D01*
X289292D01*
X289328Y315349D01*
X289368Y315353D01*
X289455Y315364D01*
X289550Y315382D01*
X289645Y315404D01*
X289739Y315433D01*
X289743D01*
X289750Y315437D01*
X289761Y315444D01*
X289779Y315451D01*
X289823Y315473D01*
X289874Y315506D01*
X289932Y315546D01*
X289994Y315597D01*
X290049Y315655D01*
X290100Y315724D01*
Y315728D01*
X290103Y315735D01*
X290111Y315746D01*
X290118Y315761D01*
X290125Y315779D01*
X290136Y315801D01*
X290158Y315852D01*
X290180Y315917D01*
X290198Y315990D01*
X290212Y316070D01*
X290216Y316154D01*
Y316179D01*
X290212Y316201D01*
Y316227D01*
X290209Y316252D01*
X290194Y316318D01*
X290176Y316394D01*
X290147Y316471D01*
X290107Y316551D01*
X290085Y316591D01*
X290056Y316627D01*
X290052Y316631D01*
X290049Y316634D01*
X290038Y316645D01*
X290027Y316660D01*
X290009Y316674D01*
X289987Y316692D01*
X289965Y316714D01*
X289936Y316733D01*
X289903Y316754D01*
X289867Y316780D01*
X289830Y316802D01*
X289787Y316824D01*
X289739Y316842D01*
X289688Y316860D01*
X289634Y316878D01*
X289576Y316893D01*
X289659Y317228D01*
X289663D01*
X289677Y317224D01*
D02*
G37*
G36*
X137163Y358179D02*
X137192Y358175D01*
X137225Y358171D01*
X137265Y358164D01*
X137305Y358157D01*
X137399Y358135D01*
X137498Y358099D01*
X137549Y358077D01*
X137596Y358048D01*
X137647Y358018D01*
X137694Y357982D01*
X137698Y357979D01*
X137709Y357971D01*
X137723Y357957D01*
X137742Y357938D01*
X137763Y357913D01*
X137793Y357884D01*
X137818Y357847D01*
X137847Y357807D01*
X137876Y357764D01*
X137902Y357713D01*
X137927Y357658D01*
X137953Y357600D01*
X137971Y357538D01*
X137986Y357469D01*
X137996Y357396D01*
X138000Y357320D01*
Y357287D01*
X137996Y357261D01*
X137993Y357232D01*
X137989Y357200D01*
X137986Y357159D01*
X137975Y357119D01*
X137953Y357028D01*
X137920Y356937D01*
X137898Y356890D01*
X137873Y356843D01*
X137844Y356799D01*
X137811Y356755D01*
X137807Y356752D01*
X137803Y356745D01*
X137789Y356737D01*
X137774Y356723D01*
X137756Y356704D01*
X137734Y356686D01*
X137705Y356664D01*
X137672Y356646D01*
X137640Y356624D01*
X137600Y356603D01*
X137512Y356562D01*
X137410Y356530D01*
X137356Y356519D01*
X137297Y356511D01*
X137272Y356836D01*
X137276D01*
X137283D01*
X137294Y356839D01*
X137312Y356843D01*
X137352Y356854D01*
X137407Y356868D01*
X137461Y356890D01*
X137523Y356919D01*
X137578Y356956D01*
X137629Y356999D01*
X137632Y357007D01*
X137647Y357021D01*
X137665Y357050D01*
X137687Y357090D01*
X137709Y357134D01*
X137727Y357189D01*
X137742Y357250D01*
X137745Y357320D01*
Y357342D01*
X137742Y357356D01*
X137738Y357400D01*
X137723Y357451D01*
X137705Y357513D01*
X137676Y357574D01*
X137632Y357640D01*
X137607Y357669D01*
X137578Y357698D01*
X137574Y357702D01*
X137571Y357705D01*
X137560Y357713D01*
X137549Y357724D01*
X137509Y357749D01*
X137458Y357778D01*
X137396Y357804D01*
X137319Y357829D01*
X137228Y357847D01*
X137181Y357855D01*
X137130D01*
X137126D01*
X137119D01*
X137105D01*
X137086Y357851D01*
X137065D01*
X137039Y357847D01*
X136981Y357837D01*
X136912Y357818D01*
X136843Y357793D01*
X136777Y357756D01*
X136715Y357705D01*
X136712D01*
X136708Y357698D01*
X136690Y357680D01*
X136664Y357647D01*
X136635Y357604D01*
X136609Y357545D01*
X136584Y357480D01*
X136566Y357403D01*
X136559Y357360D01*
Y357291D01*
X136562Y357261D01*
X136566Y357225D01*
X136577Y357181D01*
X136588Y357138D01*
X136606Y357090D01*
X136628Y357043D01*
X136631Y357039D01*
X136639Y357025D01*
X136657Y357003D01*
X136675Y356974D01*
X136700Y356945D01*
X136733Y356916D01*
X136766Y356883D01*
X136806Y356857D01*
X136766Y356566D01*
X135470Y356810D01*
Y358062D01*
X135765D01*
Y357054D01*
X136446Y356919D01*
X136442Y356923D01*
X136439Y356930D01*
X136431Y356941D01*
X136420Y356959D01*
X136409Y356981D01*
X136395Y357007D01*
X136366Y357065D01*
X136337Y357138D01*
X136311Y357218D01*
X136293Y357305D01*
X136286Y357349D01*
Y357429D01*
X136289Y357451D01*
X136293Y357480D01*
X136296Y357513D01*
X136304Y357549D01*
X136315Y357589D01*
X136340Y357676D01*
X136358Y357724D01*
X136384Y357771D01*
X136409Y357818D01*
X136439Y357866D01*
X136475Y357909D01*
X136515Y357953D01*
X136519Y357957D01*
X136526Y357964D01*
X136537Y357975D01*
X136555Y357989D01*
X136580Y358008D01*
X136606Y358026D01*
X136639Y358048D01*
X136675Y358069D01*
X136715Y358088D01*
X136759Y358109D01*
X136810Y358128D01*
X136861Y358146D01*
X136915Y358160D01*
X136977Y358171D01*
X137039Y358179D01*
X137105Y358182D01*
X137108D01*
X137119D01*
X137137D01*
X137163Y358179D01*
D02*
G37*
G36*
X137177Y356224D02*
X137199Y356217D01*
X137228Y356206D01*
X137261Y356195D01*
X137301Y356180D01*
X137345Y356162D01*
X137392Y356140D01*
X137494Y356089D01*
X137596Y356024D01*
X137647Y355984D01*
X137698Y355944D01*
X137742Y355900D01*
X137785Y355849D01*
X137789Y355845D01*
X137796Y355838D01*
X137803Y355820D01*
X137818Y355802D01*
X137836Y355773D01*
X137854Y355744D01*
X137873Y355703D01*
X137891Y355663D01*
X137913Y355616D01*
X137931Y355565D01*
X137949Y355511D01*
X137967Y355452D01*
X137982Y355390D01*
X137989Y355325D01*
X137996Y355256D01*
X138000Y355183D01*
Y355143D01*
X137996Y355114D01*
Y355081D01*
X137993Y355041D01*
X137986Y354997D01*
X137978Y354946D01*
X137960Y354841D01*
X137931Y354732D01*
X137891Y354622D01*
X137865Y354571D01*
X137836Y354521D01*
X137833Y354517D01*
X137829Y354509D01*
X137818Y354495D01*
X137803Y354480D01*
X137789Y354459D01*
X137767Y354433D01*
X137742Y354404D01*
X137713Y354375D01*
X137680Y354346D01*
X137647Y354313D01*
X137563Y354247D01*
X137465Y354186D01*
X137356Y354131D01*
X137352D01*
X137341Y354124D01*
X137323Y354120D01*
X137301Y354109D01*
X137272Y354102D01*
X137236Y354091D01*
X137196Y354076D01*
X137152Y354065D01*
X137105Y354055D01*
X137050Y354040D01*
X136937Y354022D01*
X136810Y354007D01*
X136679Y354000D01*
X136675D01*
X136661D01*
X136639D01*
X136613Y354004D01*
X136577D01*
X136540Y354007D01*
X136493Y354011D01*
X136446Y354018D01*
X136340Y354036D01*
X136224Y354062D01*
X136107Y354098D01*
X135994Y354149D01*
X135991Y354153D01*
X135980Y354156D01*
X135965Y354164D01*
X135947Y354178D01*
X135922Y354193D01*
X135892Y354211D01*
X135827Y354258D01*
X135754Y354320D01*
X135681Y354393D01*
X135608Y354477D01*
X135547Y354575D01*
X135543Y354579D01*
X135539Y354590D01*
X135532Y354604D01*
X135521Y354622D01*
X135510Y354651D01*
X135499Y354681D01*
X135485Y354717D01*
X135470Y354757D01*
X135456Y354801D01*
X135441Y354848D01*
X135419Y354950D01*
X135401Y355066D01*
X135394Y355187D01*
Y355223D01*
X135397Y355248D01*
X135401Y355281D01*
X135405Y355321D01*
X135408Y355361D01*
X135419Y355409D01*
X135441Y355507D01*
X135474Y355616D01*
X135496Y355671D01*
X135521Y355722D01*
X135554Y355773D01*
X135587Y355824D01*
X135590Y355827D01*
X135594Y355835D01*
X135605Y355849D01*
X135623Y355867D01*
X135641Y355886D01*
X135667Y355911D01*
X135696Y355936D01*
X135725Y355965D01*
X135761Y355995D01*
X135805Y356024D01*
X135849Y356057D01*
X135896Y356086D01*
X135951Y356111D01*
X136005Y356140D01*
X136064Y356162D01*
X136129Y356184D01*
X136205Y355856D01*
X136202D01*
X136195Y355853D01*
X136180Y355845D01*
X136162Y355838D01*
X136140Y355831D01*
X136111Y355820D01*
X136053Y355791D01*
X135987Y355754D01*
X135922Y355711D01*
X135860Y355656D01*
X135805Y355598D01*
X135798Y355591D01*
X135783Y355569D01*
X135765Y355532D01*
X135740Y355485D01*
X135718Y355423D01*
X135696Y355354D01*
X135681Y355270D01*
X135678Y355179D01*
Y355150D01*
X135681Y355132D01*
Y355106D01*
X135685Y355077D01*
X135696Y355008D01*
X135711Y354932D01*
X135736Y354852D01*
X135772Y354768D01*
X135820Y354692D01*
Y354688D01*
X135827Y354684D01*
X135845Y354659D01*
X135874Y354626D01*
X135918Y354586D01*
X135973Y354539D01*
X136034Y354495D01*
X136111Y354455D01*
X136195Y354419D01*
X136198D01*
X136205Y354415D01*
X136216Y354411D01*
X136235Y354408D01*
X136257Y354400D01*
X136282Y354393D01*
X136344Y354382D01*
X136417Y354368D01*
X136497Y354353D01*
X136584Y354346D01*
X136679Y354342D01*
X136682D01*
X136693D01*
X136712D01*
X136733D01*
X136759Y354346D01*
X136792D01*
X136828Y354349D01*
X136868Y354353D01*
X136955Y354364D01*
X137050Y354382D01*
X137145Y354404D01*
X137239Y354433D01*
X137243D01*
X137250Y354437D01*
X137261Y354444D01*
X137279Y354451D01*
X137323Y354473D01*
X137374Y354506D01*
X137432Y354546D01*
X137494Y354597D01*
X137549Y354655D01*
X137600Y354724D01*
Y354728D01*
X137603Y354735D01*
X137610Y354746D01*
X137618Y354761D01*
X137625Y354779D01*
X137636Y354801D01*
X137658Y354852D01*
X137680Y354917D01*
X137698Y354990D01*
X137713Y355070D01*
X137716Y355154D01*
Y355179D01*
X137713Y355201D01*
Y355227D01*
X137709Y355252D01*
X137694Y355318D01*
X137676Y355394D01*
X137647Y355470D01*
X137607Y355551D01*
X137585Y355591D01*
X137556Y355627D01*
X137552Y355631D01*
X137549Y355634D01*
X137538Y355645D01*
X137527Y355660D01*
X137509Y355674D01*
X137487Y355693D01*
X137465Y355714D01*
X137436Y355733D01*
X137403Y355754D01*
X137367Y355780D01*
X137330Y355802D01*
X137287Y355824D01*
X137239Y355842D01*
X137188Y355860D01*
X137134Y355878D01*
X137075Y355893D01*
X137159Y356228D01*
X137163D01*
X137177Y356224D01*
D02*
G37*
G36*
X385248Y338603D02*
X385281Y338599D01*
X385321Y338595D01*
X385361Y338592D01*
X385409Y338581D01*
X385507Y338559D01*
X385616Y338526D01*
X385671Y338504D01*
X385722Y338479D01*
X385773Y338446D01*
X385824Y338413D01*
X385827Y338410D01*
X385835Y338406D01*
X385849Y338395D01*
X385867Y338377D01*
X385886Y338359D01*
X385911Y338333D01*
X385936Y338304D01*
X385965Y338275D01*
X385995Y338239D01*
X386024Y338195D01*
X386057Y338151D01*
X386086Y338104D01*
X386111Y338049D01*
X386140Y337995D01*
X386162Y337936D01*
X386184Y337871D01*
X385856Y337794D01*
Y337798D01*
X385853Y337805D01*
X385845Y337820D01*
X385838Y337838D01*
X385831Y337860D01*
X385820Y337889D01*
X385791Y337947D01*
X385754Y338013D01*
X385711Y338078D01*
X385656Y338140D01*
X385598Y338195D01*
X385591Y338202D01*
X385569Y338217D01*
X385532Y338235D01*
X385485Y338260D01*
X385423Y338282D01*
X385354Y338304D01*
X385270Y338319D01*
X385179Y338322D01*
X385150D01*
X385132Y338319D01*
X385106D01*
X385077Y338315D01*
X385008Y338304D01*
X384932Y338289D01*
X384852Y338264D01*
X384768Y338228D01*
X384692Y338180D01*
X384688D01*
X384684Y338173D01*
X384659Y338155D01*
X384626Y338126D01*
X384586Y338082D01*
X384539Y338027D01*
X384495Y337965D01*
X384455Y337889D01*
X384419Y337805D01*
Y337802D01*
X384415Y337794D01*
X384411Y337784D01*
X384408Y337765D01*
X384400Y337743D01*
X384393Y337718D01*
X384382Y337656D01*
X384368Y337583D01*
X384353Y337503D01*
X384346Y337416D01*
X384342Y337321D01*
Y337318D01*
Y337307D01*
Y337288D01*
Y337267D01*
X384346Y337241D01*
Y337208D01*
X384349Y337172D01*
X384353Y337132D01*
X384364Y337045D01*
X384382Y336950D01*
X384404Y336855D01*
X384433Y336761D01*
Y336757D01*
X384437Y336750D01*
X384444Y336739D01*
X384451Y336721D01*
X384473Y336677D01*
X384506Y336626D01*
X384546Y336568D01*
X384597Y336506D01*
X384655Y336451D01*
X384724Y336400D01*
X384728D01*
X384735Y336397D01*
X384746Y336389D01*
X384761Y336382D01*
X384779Y336375D01*
X384801Y336364D01*
X384852Y336342D01*
X384917Y336320D01*
X384990Y336302D01*
X385070Y336287D01*
X385154Y336284D01*
X385179D01*
X385201Y336287D01*
X385227D01*
X385252Y336291D01*
X385318Y336306D01*
X385394Y336324D01*
X385471Y336353D01*
X385551Y336393D01*
X385591Y336415D01*
X385627Y336444D01*
X385631Y336448D01*
X385634Y336451D01*
X385645Y336462D01*
X385660Y336473D01*
X385674Y336491D01*
X385693Y336513D01*
X385714Y336535D01*
X385733Y336564D01*
X385754Y336597D01*
X385780Y336633D01*
X385802Y336670D01*
X385824Y336713D01*
X385842Y336761D01*
X385860Y336812D01*
X385878Y336866D01*
X385893Y336925D01*
X386228Y336841D01*
Y336837D01*
X386224Y336823D01*
X386217Y336801D01*
X386206Y336772D01*
X386195Y336739D01*
X386180Y336699D01*
X386162Y336655D01*
X386140Y336608D01*
X386089Y336506D01*
X386024Y336404D01*
X385984Y336353D01*
X385944Y336302D01*
X385900Y336258D01*
X385849Y336215D01*
X385845Y336211D01*
X385838Y336204D01*
X385820Y336196D01*
X385802Y336182D01*
X385773Y336164D01*
X385743Y336146D01*
X385703Y336127D01*
X385663Y336109D01*
X385616Y336087D01*
X385565Y336069D01*
X385511Y336051D01*
X385452Y336033D01*
X385390Y336018D01*
X385325Y336011D01*
X385256Y336004D01*
X385183Y336000D01*
X385143D01*
X385114Y336004D01*
X385081D01*
X385041Y336007D01*
X384997Y336015D01*
X384946Y336022D01*
X384841Y336040D01*
X384732Y336069D01*
X384622Y336109D01*
X384571Y336135D01*
X384521Y336164D01*
X384517Y336167D01*
X384509Y336171D01*
X384495Y336182D01*
X384480Y336196D01*
X384459Y336211D01*
X384433Y336233D01*
X384404Y336258D01*
X384375Y336287D01*
X384346Y336320D01*
X384313Y336353D01*
X384247Y336437D01*
X384186Y336535D01*
X384131Y336644D01*
Y336648D01*
X384124Y336659D01*
X384120Y336677D01*
X384109Y336699D01*
X384102Y336728D01*
X384091Y336764D01*
X384076Y336804D01*
X384066Y336848D01*
X384055Y336895D01*
X384040Y336950D01*
X384022Y337063D01*
X384007Y337190D01*
X384000Y337321D01*
Y337325D01*
Y337339D01*
Y337361D01*
X384004Y337387D01*
Y337423D01*
X384007Y337460D01*
X384011Y337507D01*
X384018Y337554D01*
X384036Y337660D01*
X384062Y337776D01*
X384098Y337893D01*
X384149Y338006D01*
X384153Y338009D01*
X384156Y338020D01*
X384164Y338035D01*
X384178Y338053D01*
X384193Y338078D01*
X384211Y338107D01*
X384258Y338173D01*
X384320Y338246D01*
X384393Y338319D01*
X384477Y338391D01*
X384575Y338453D01*
X384579Y338457D01*
X384590Y338461D01*
X384604Y338468D01*
X384622Y338479D01*
X384651Y338490D01*
X384681Y338501D01*
X384717Y338515D01*
X384757Y338530D01*
X384801Y338544D01*
X384848Y338559D01*
X384950Y338581D01*
X385067Y338599D01*
X385187Y338606D01*
X385223D01*
X385248Y338603D01*
D02*
G37*
G36*
X387378Y338570D02*
X387425Y338562D01*
X387483Y338552D01*
X387549Y338533D01*
X387614Y338511D01*
X387680Y338482D01*
X387684D01*
X387687Y338479D01*
X387709Y338468D01*
X387742Y338446D01*
X387778Y338421D01*
X387822Y338384D01*
X387866Y338344D01*
X387909Y338297D01*
X387946Y338242D01*
X387949Y338235D01*
X387960Y338217D01*
X387975Y338184D01*
X387993Y338144D01*
X388011Y338097D01*
X388026Y338042D01*
X388037Y337980D01*
X388040Y337918D01*
Y337911D01*
Y337889D01*
X388037Y337860D01*
X388029Y337820D01*
X388018Y337773D01*
X388000Y337722D01*
X387979Y337671D01*
X387949Y337620D01*
X387946Y337613D01*
X387935Y337598D01*
X387913Y337572D01*
X387884Y337543D01*
X387847Y337511D01*
X387804Y337474D01*
X387753Y337441D01*
X387691Y337409D01*
X387695D01*
X387702Y337405D01*
X387713Y337401D01*
X387727Y337398D01*
X387767Y337383D01*
X387818Y337361D01*
X387877Y337332D01*
X387935Y337296D01*
X387989Y337248D01*
X388040Y337194D01*
X388044Y337187D01*
X388059Y337165D01*
X388080Y337128D01*
X388102Y337081D01*
X388124Y337023D01*
X388146Y336954D01*
X388160Y336874D01*
X388164Y336786D01*
Y336783D01*
Y336772D01*
Y336753D01*
X388160Y336732D01*
X388157Y336702D01*
X388149Y336670D01*
X388142Y336633D01*
X388135Y336593D01*
X388106Y336506D01*
X388084Y336459D01*
X388062Y336415D01*
X388033Y336368D01*
X388000Y336320D01*
X387964Y336273D01*
X387920Y336229D01*
X387917Y336226D01*
X387909Y336218D01*
X387895Y336207D01*
X387877Y336193D01*
X387855Y336175D01*
X387826Y336157D01*
X387793Y336135D01*
X387753Y336116D01*
X387713Y336095D01*
X387665Y336073D01*
X387618Y336055D01*
X387563Y336036D01*
X387505Y336022D01*
X387443Y336011D01*
X387382Y336004D01*
X387312Y336000D01*
X387280D01*
X387258Y336004D01*
X387229Y336007D01*
X387196Y336011D01*
X387159Y336018D01*
X387119Y336025D01*
X387032Y336047D01*
X386941Y336084D01*
X386894Y336105D01*
X386850Y336131D01*
X386806Y336164D01*
X386763Y336196D01*
X386759Y336200D01*
X386752Y336207D01*
X386741Y336218D01*
X386730Y336233D01*
X386712Y336251D01*
X386694Y336277D01*
X386672Y336302D01*
X386650Y336335D01*
X386628Y336371D01*
X386606Y336408D01*
X386566Y336495D01*
X386533Y336597D01*
X386523Y336651D01*
X386515Y336710D01*
X386825Y336750D01*
Y336746D01*
X386828Y336739D01*
X386832Y336724D01*
X386836Y336706D01*
X386839Y336684D01*
X386846Y336659D01*
X386865Y336604D01*
X386890Y336539D01*
X386923Y336477D01*
X386959Y336419D01*
X387003Y336368D01*
X387010Y336364D01*
X387025Y336349D01*
X387054Y336331D01*
X387090Y336313D01*
X387134Y336291D01*
X387189Y336273D01*
X387250Y336258D01*
X387316Y336255D01*
X387338D01*
X387352Y336258D01*
X387392Y336262D01*
X387443Y336273D01*
X387502Y336291D01*
X387563Y336317D01*
X387625Y336353D01*
X387684Y336404D01*
X387691Y336411D01*
X387709Y336433D01*
X387731Y336466D01*
X387760Y336509D01*
X387789Y336564D01*
X387811Y336626D01*
X387829Y336699D01*
X387837Y336779D01*
Y336783D01*
Y336790D01*
Y336801D01*
X387833Y336815D01*
X387829Y336855D01*
X387818Y336903D01*
X387804Y336961D01*
X387778Y337019D01*
X387742Y337077D01*
X387695Y337132D01*
X387687Y337139D01*
X387669Y337154D01*
X387640Y337176D01*
X387600Y337201D01*
X387549Y337227D01*
X387487Y337248D01*
X387418Y337263D01*
X387341Y337270D01*
X387309D01*
X387283Y337267D01*
X387250Y337263D01*
X387214Y337256D01*
X387170Y337248D01*
X387123Y337238D01*
X387159Y337511D01*
X387178D01*
X387192Y337507D01*
X387240D01*
X387280Y337514D01*
X387327Y337522D01*
X387382Y337532D01*
X387443Y337551D01*
X387502Y337576D01*
X387563Y337609D01*
X387567D01*
X387571Y337613D01*
X387589Y337627D01*
X387614Y337652D01*
X387644Y337685D01*
X387673Y337733D01*
X387698Y337787D01*
X387716Y337849D01*
X387724Y337885D01*
Y337926D01*
Y337929D01*
Y337933D01*
Y337955D01*
X387716Y337984D01*
X387709Y338024D01*
X387695Y338068D01*
X387676Y338115D01*
X387647Y338162D01*
X387607Y338206D01*
X387603Y338209D01*
X387585Y338224D01*
X387560Y338242D01*
X387527Y338264D01*
X387483Y338282D01*
X387433Y338300D01*
X387374Y338315D01*
X387309Y338319D01*
X387280D01*
X387247Y338311D01*
X387203Y338304D01*
X387156Y338289D01*
X387108Y338271D01*
X387057Y338242D01*
X387010Y338206D01*
X387007Y338202D01*
X386992Y338184D01*
X386970Y338158D01*
X386945Y338122D01*
X386919Y338075D01*
X386894Y338017D01*
X386872Y337947D01*
X386857Y337867D01*
X386548Y337922D01*
Y337926D01*
X386552Y337936D01*
X386555Y337951D01*
X386559Y337973D01*
X386566Y337998D01*
X386577Y338027D01*
X386599Y338097D01*
X386635Y338177D01*
X386679Y338257D01*
X386734Y338333D01*
X386803Y338402D01*
X386806Y338406D01*
X386814Y338410D01*
X386825Y338417D01*
X386839Y338428D01*
X386857Y338442D01*
X386883Y338457D01*
X386908Y338472D01*
X386941Y338490D01*
X387014Y338519D01*
X387098Y338548D01*
X387196Y338566D01*
X387247Y338573D01*
X387338D01*
X387378Y338570D01*
D02*
G37*
G36*
X385749Y317603D02*
X385781Y317599D01*
X385821Y317595D01*
X385861Y317592D01*
X385909Y317581D01*
X386007Y317559D01*
X386116Y317526D01*
X386171Y317504D01*
X386222Y317479D01*
X386273Y317446D01*
X386324Y317413D01*
X386327Y317410D01*
X386334Y317406D01*
X386349Y317395D01*
X386367Y317377D01*
X386385Y317359D01*
X386411Y317333D01*
X386436Y317304D01*
X386466Y317275D01*
X386495Y317238D01*
X386524Y317195D01*
X386557Y317151D01*
X386586Y317104D01*
X386611Y317049D01*
X386640Y316995D01*
X386662Y316936D01*
X386684Y316871D01*
X386356Y316794D01*
Y316798D01*
X386353Y316805D01*
X386345Y316820D01*
X386338Y316838D01*
X386331Y316860D01*
X386320Y316889D01*
X386291Y316947D01*
X386254Y317013D01*
X386211Y317078D01*
X386156Y317140D01*
X386098Y317195D01*
X386091Y317202D01*
X386069Y317217D01*
X386032Y317235D01*
X385985Y317260D01*
X385923Y317282D01*
X385854Y317304D01*
X385770Y317319D01*
X385679Y317322D01*
X385650D01*
X385632Y317319D01*
X385607D01*
X385577Y317315D01*
X385508Y317304D01*
X385432Y317289D01*
X385352Y317264D01*
X385268Y317228D01*
X385192Y317180D01*
X385188D01*
X385184Y317173D01*
X385159Y317155D01*
X385126Y317126D01*
X385086Y317082D01*
X385039Y317027D01*
X384995Y316966D01*
X384955Y316889D01*
X384919Y316805D01*
Y316802D01*
X384915Y316794D01*
X384911Y316784D01*
X384908Y316765D01*
X384900Y316743D01*
X384893Y316718D01*
X384882Y316656D01*
X384868Y316583D01*
X384853Y316503D01*
X384846Y316416D01*
X384842Y316321D01*
Y316318D01*
Y316307D01*
Y316288D01*
Y316267D01*
X384846Y316241D01*
Y316208D01*
X384849Y316172D01*
X384853Y316132D01*
X384864Y316045D01*
X384882Y315950D01*
X384904Y315855D01*
X384933Y315761D01*
Y315757D01*
X384937Y315750D01*
X384944Y315739D01*
X384951Y315721D01*
X384973Y315677D01*
X385006Y315626D01*
X385046Y315568D01*
X385097Y315506D01*
X385155Y315451D01*
X385224Y315400D01*
X385228D01*
X385235Y315397D01*
X385246Y315389D01*
X385261Y315382D01*
X385279Y315375D01*
X385301Y315364D01*
X385352Y315342D01*
X385417Y315320D01*
X385490Y315302D01*
X385570Y315287D01*
X385654Y315284D01*
X385679D01*
X385701Y315287D01*
X385727D01*
X385752Y315291D01*
X385818Y315306D01*
X385894Y315324D01*
X385970Y315353D01*
X386051Y315393D01*
X386091Y315415D01*
X386127Y315444D01*
X386131Y315448D01*
X386134Y315451D01*
X386145Y315462D01*
X386160Y315473D01*
X386174Y315491D01*
X386192Y315513D01*
X386214Y315535D01*
X386233Y315564D01*
X386254Y315597D01*
X386280Y315633D01*
X386302Y315670D01*
X386324Y315713D01*
X386342Y315761D01*
X386360Y315812D01*
X386378Y315866D01*
X386393Y315925D01*
X386728Y315841D01*
Y315837D01*
X386724Y315823D01*
X386717Y315801D01*
X386706Y315772D01*
X386695Y315739D01*
X386680Y315699D01*
X386662Y315655D01*
X386640Y315608D01*
X386589Y315506D01*
X386524Y315404D01*
X386484Y315353D01*
X386444Y315302D01*
X386400Y315258D01*
X386349Y315215D01*
X386345Y315211D01*
X386338Y315204D01*
X386320Y315196D01*
X386302Y315182D01*
X386273Y315164D01*
X386244Y315146D01*
X386204Y315127D01*
X386163Y315109D01*
X386116Y315087D01*
X386065Y315069D01*
X386011Y315051D01*
X385952Y315033D01*
X385890Y315018D01*
X385825Y315011D01*
X385756Y315004D01*
X385683Y315000D01*
X385643D01*
X385614Y315004D01*
X385581D01*
X385541Y315007D01*
X385497Y315015D01*
X385446Y315022D01*
X385341Y315040D01*
X385232Y315069D01*
X385122Y315109D01*
X385071Y315135D01*
X385020Y315164D01*
X385017Y315167D01*
X385010Y315171D01*
X384995Y315182D01*
X384980Y315196D01*
X384959Y315211D01*
X384933Y315233D01*
X384904Y315258D01*
X384875Y315287D01*
X384846Y315320D01*
X384813Y315353D01*
X384748Y315437D01*
X384686Y315535D01*
X384631Y315644D01*
Y315648D01*
X384624Y315659D01*
X384620Y315677D01*
X384609Y315699D01*
X384602Y315728D01*
X384591Y315764D01*
X384576Y315804D01*
X384565Y315848D01*
X384555Y315895D01*
X384540Y315950D01*
X384522Y316063D01*
X384507Y316190D01*
X384500Y316321D01*
Y316325D01*
Y316339D01*
Y316361D01*
X384504Y316387D01*
Y316423D01*
X384507Y316460D01*
X384511Y316507D01*
X384518Y316554D01*
X384536Y316660D01*
X384562Y316776D01*
X384598Y316893D01*
X384649Y317006D01*
X384653Y317009D01*
X384657Y317020D01*
X384664Y317035D01*
X384678Y317053D01*
X384693Y317078D01*
X384711Y317108D01*
X384758Y317173D01*
X384820Y317246D01*
X384893Y317319D01*
X384977Y317391D01*
X385075Y317453D01*
X385079Y317457D01*
X385090Y317461D01*
X385104Y317468D01*
X385122Y317479D01*
X385152Y317490D01*
X385181Y317501D01*
X385217Y317515D01*
X385257Y317530D01*
X385301Y317544D01*
X385348Y317559D01*
X385450Y317581D01*
X385566Y317599D01*
X385687Y317606D01*
X385723D01*
X385749Y317603D01*
D02*
G37*
G36*
X387907Y317570D02*
X387936Y317566D01*
X387972Y317563D01*
X388013Y317555D01*
X388053Y317548D01*
X388147Y317523D01*
X388242Y317486D01*
X388289Y317464D01*
X388336Y317439D01*
X388380Y317406D01*
X388420Y317370D01*
X388424Y317366D01*
X388431Y317362D01*
X388438Y317348D01*
X388453Y317333D01*
X388471Y317315D01*
X388489Y317289D01*
X388508Y317264D01*
X388529Y317231D01*
X388566Y317162D01*
X388602Y317075D01*
X388617Y317031D01*
X388624Y316980D01*
X388631Y316929D01*
X388635Y316875D01*
Y316867D01*
Y316849D01*
X388631Y316820D01*
X388628Y316780D01*
X388620Y316736D01*
X388606Y316685D01*
X388591Y316631D01*
X388569Y316576D01*
X388566Y316569D01*
X388559Y316551D01*
X388544Y316522D01*
X388522Y316481D01*
X388493Y316438D01*
X388457Y316383D01*
X388413Y316329D01*
X388362Y316267D01*
X388355Y316259D01*
X388336Y316238D01*
X388318Y316219D01*
X388300Y316201D01*
X388278Y316179D01*
X388249Y316150D01*
X388220Y316121D01*
X388184Y316088D01*
X388147Y316052D01*
X388104Y316012D01*
X388056Y315972D01*
X388005Y315925D01*
X387947Y315877D01*
X387889Y315826D01*
X387885Y315823D01*
X387878Y315815D01*
X387863Y315804D01*
X387845Y315790D01*
X387823Y315768D01*
X387798Y315746D01*
X387740Y315699D01*
X387678Y315644D01*
X387619Y315590D01*
X387568Y315542D01*
X387547Y315524D01*
X387528Y315506D01*
X387525Y315502D01*
X387514Y315491D01*
X387499Y315477D01*
X387481Y315455D01*
X387463Y315429D01*
X387441Y315404D01*
X387397Y315342D01*
X388639D01*
Y315044D01*
X386968D01*
Y315047D01*
Y315062D01*
Y315084D01*
X386971Y315113D01*
X386975Y315146D01*
X386982Y315182D01*
X386990Y315218D01*
X387004Y315258D01*
Y315262D01*
X387008Y315266D01*
X387015Y315287D01*
X387030Y315320D01*
X387052Y315364D01*
X387081Y315415D01*
X387117Y315473D01*
X387157Y315531D01*
X387208Y315593D01*
Y315597D01*
X387215Y315601D01*
X387234Y315622D01*
X387266Y315655D01*
X387314Y315703D01*
X387368Y315757D01*
X387437Y315823D01*
X387521Y315895D01*
X387612Y315972D01*
X387616Y315975D01*
X387630Y315986D01*
X387652Y316005D01*
X387678Y316026D01*
X387710Y316055D01*
X387751Y316088D01*
X387790Y316125D01*
X387838Y316165D01*
X387929Y316252D01*
X388020Y316339D01*
X388064Y316383D01*
X388104Y316427D01*
X388140Y316467D01*
X388169Y316507D01*
Y316511D01*
X388176Y316514D01*
X388184Y316525D01*
X388191Y316540D01*
X388216Y316580D01*
X388246Y316627D01*
X388271Y316685D01*
X388297Y316747D01*
X388311Y316816D01*
X388318Y316882D01*
Y316885D01*
Y316889D01*
X388315Y316911D01*
X388311Y316947D01*
X388300Y316987D01*
X388286Y317038D01*
X388260Y317089D01*
X388227Y317140D01*
X388184Y317191D01*
X388176Y317198D01*
X388158Y317213D01*
X388133Y317231D01*
X388093Y317257D01*
X388042Y317279D01*
X387983Y317300D01*
X387914Y317315D01*
X387838Y317319D01*
X387816D01*
X387801Y317315D01*
X387758Y317311D01*
X387707Y317300D01*
X387652Y317286D01*
X387590Y317260D01*
X387532Y317228D01*
X387477Y317184D01*
X387470Y317177D01*
X387456Y317159D01*
X387434Y317129D01*
X387412Y317086D01*
X387386Y317035D01*
X387365Y316969D01*
X387350Y316896D01*
X387343Y316813D01*
X387026Y316845D01*
Y316849D01*
X387030Y316860D01*
Y316878D01*
X387033Y316904D01*
X387041Y316933D01*
X387048Y316966D01*
X387059Y317006D01*
X387070Y317046D01*
X387099Y317133D01*
X387143Y317220D01*
X387168Y317264D01*
X387201Y317308D01*
X387234Y317348D01*
X387270Y317384D01*
X387274Y317388D01*
X387281Y317391D01*
X387292Y317402D01*
X387310Y317413D01*
X387332Y317428D01*
X387357Y317442D01*
X387386Y317461D01*
X387423Y317479D01*
X387463Y317497D01*
X387507Y317515D01*
X387554Y317530D01*
X387605Y317544D01*
X387660Y317555D01*
X387718Y317566D01*
X387780Y317570D01*
X387845Y317573D01*
X387881D01*
X387907Y317570D01*
D02*
G37*
%LPC*%
G36*
X231244Y369171D02*
X231241D01*
X231237D01*
X231215Y369167D01*
X231182Y369163D01*
X231139Y369156D01*
X231095Y369138D01*
X231044Y369116D01*
X230997Y369083D01*
X230949Y369040D01*
X230946Y369032D01*
X230931Y369014D01*
X230913Y368985D01*
X230891Y368938D01*
X230869Y368883D01*
X230851Y368810D01*
X230837Y368727D01*
X230833Y368628D01*
Y367835D01*
X231666D01*
Y368585D01*
X231663Y368628D01*
X231659Y368679D01*
X231656Y368738D01*
X231648Y368796D01*
X231637Y368854D01*
X231623Y368905D01*
X231619Y368912D01*
X231612Y368927D01*
X231601Y368949D01*
X231586Y368978D01*
X231564Y369011D01*
X231539Y369043D01*
X231506Y369076D01*
X231470Y369102D01*
X231466Y369105D01*
X231452Y369112D01*
X231430Y369123D01*
X231401Y369138D01*
X231368Y369149D01*
X231332Y369160D01*
X231288Y369167D01*
X231244Y369171D01*
D02*
G37*
G36*
X249667Y367165D02*
X248834D01*
Y366415D01*
X248837Y366372D01*
X248841Y366321D01*
X248845Y366263D01*
X248852Y366204D01*
X248863Y366146D01*
X248877Y366095D01*
X248881Y366088D01*
X248888Y366073D01*
X248899Y366051D01*
X248914Y366022D01*
X248936Y365989D01*
X248961Y365957D01*
X248994Y365924D01*
X249030Y365898D01*
X249034Y365895D01*
X249048Y365888D01*
X249070Y365877D01*
X249099Y365862D01*
X249132Y365851D01*
X249168Y365840D01*
X249212Y365833D01*
X249256Y365829D01*
X249259D01*
X249263D01*
X249285Y365833D01*
X249318Y365837D01*
X249361Y365844D01*
X249405Y365862D01*
X249456Y365884D01*
X249503Y365917D01*
X249551Y365960D01*
X249554Y365968D01*
X249569Y365986D01*
X249587Y366015D01*
X249609Y366062D01*
X249631Y366117D01*
X249649Y366190D01*
X249663Y366273D01*
X249667Y366372D01*
Y367165D01*
D02*
G37*
G36*
X260898Y370900D02*
X259769D01*
X260898Y370106D01*
Y370900D01*
D02*
G37*
G36*
X259959Y369171D02*
X259955D01*
X259951D01*
X259929Y369167D01*
X259897Y369163D01*
X259853Y369156D01*
X259809Y369138D01*
X259758Y369116D01*
X259711Y369083D01*
X259664Y369040D01*
X259660Y369032D01*
X259645Y369014D01*
X259627Y368985D01*
X259605Y368938D01*
X259584Y368883D01*
X259565Y368810D01*
X259551Y368727D01*
X259547Y368628D01*
Y367835D01*
X260381D01*
Y368585D01*
X260377Y368628D01*
X260373Y368679D01*
X260370Y368738D01*
X260363Y368796D01*
X260352Y368854D01*
X260337Y368905D01*
X260333Y368912D01*
X260326Y368927D01*
X260315Y368949D01*
X260301Y368978D01*
X260279Y369011D01*
X260253Y369043D01*
X260221Y369076D01*
X260184Y369102D01*
X260180Y369105D01*
X260166Y369112D01*
X260144Y369123D01*
X260115Y369138D01*
X260082Y369149D01*
X260046Y369160D01*
X260002Y369167D01*
X259959Y369171D01*
D02*
G37*
G36*
X166856Y354905D02*
X166834D01*
X166820Y354901D01*
X166783Y354898D01*
X166732Y354887D01*
X166678Y354869D01*
X166616Y354839D01*
X166558Y354803D01*
X166499Y354752D01*
X166492Y354745D01*
X166478Y354727D01*
X166452Y354694D01*
X166427Y354646D01*
X166401Y354592D01*
X166376Y354523D01*
X166361Y354446D01*
X166354Y354359D01*
Y354352D01*
Y354333D01*
X166357Y354301D01*
X166361Y354261D01*
X166368Y354213D01*
X166383Y354162D01*
X166397Y354108D01*
X166419Y354053D01*
X166423Y354046D01*
X166434Y354028D01*
X166448Y354002D01*
X166470Y353970D01*
X166496Y353937D01*
X166528Y353897D01*
X166565Y353864D01*
X166609Y353831D01*
X166616Y353828D01*
X166630Y353820D01*
X166656Y353806D01*
X166689Y353795D01*
X166725Y353780D01*
X166769Y353766D01*
X166816Y353758D01*
X166867Y353755D01*
X166885D01*
X166900Y353758D01*
X166936Y353762D01*
X166983Y353773D01*
X167034Y353795D01*
X167093Y353820D01*
X167151Y353860D01*
X167180Y353882D01*
X167206Y353911D01*
Y353915D01*
X167213Y353919D01*
X167227Y353940D01*
X167249Y353977D01*
X167278Y354024D01*
X167304Y354086D01*
X167326Y354159D01*
X167340Y354242D01*
X167347Y354341D01*
Y354344D01*
Y354352D01*
Y354366D01*
X167344Y354384D01*
Y354406D01*
X167340Y354432D01*
X167329Y354490D01*
X167315Y354556D01*
X167289Y354625D01*
X167253Y354690D01*
X167206Y354752D01*
X167198Y354759D01*
X167180Y354778D01*
X167151Y354799D01*
X167111Y354829D01*
X167060Y354858D01*
X167002Y354879D01*
X166932Y354898D01*
X166856Y354905D01*
D02*
G37*
G36*
X289659Y371246D02*
X289656D01*
X289648D01*
X289634D01*
X289616Y371242D01*
X289594D01*
X289568Y371238D01*
X289510Y371227D01*
X289444Y371213D01*
X289375Y371187D01*
X289310Y371151D01*
X289248Y371104D01*
X289241Y371096D01*
X289222Y371078D01*
X289201Y371049D01*
X289171Y371009D01*
X289142Y370958D01*
X289121Y370900D01*
X289102Y370831D01*
X289095Y370754D01*
Y370732D01*
X289099Y370718D01*
X289102Y370681D01*
X289113Y370630D01*
X289131Y370576D01*
X289160Y370514D01*
X289197Y370456D01*
X289248Y370397D01*
X289255Y370390D01*
X289273Y370376D01*
X289306Y370350D01*
X289353Y370325D01*
X289408Y370299D01*
X289477Y370274D01*
X289554Y370259D01*
X289641Y370252D01*
X289648D01*
X289667D01*
X289699Y370255D01*
X289739Y370259D01*
X289787Y370266D01*
X289838Y370281D01*
X289892Y370296D01*
X289947Y370317D01*
X289954Y370321D01*
X289972Y370332D01*
X289998Y370346D01*
X290031Y370368D01*
X290063Y370394D01*
X290103Y370427D01*
X290136Y370463D01*
X290169Y370507D01*
X290172Y370514D01*
X290180Y370529D01*
X290194Y370554D01*
X290205Y370587D01*
X290220Y370623D01*
X290234Y370667D01*
X290242Y370714D01*
X290245Y370765D01*
Y370783D01*
X290242Y370798D01*
X290238Y370834D01*
X290227Y370882D01*
X290205Y370933D01*
X290180Y370991D01*
X290140Y371049D01*
X290118Y371078D01*
X290089Y371104D01*
X290085D01*
X290081Y371111D01*
X290060Y371125D01*
X290023Y371147D01*
X289976Y371176D01*
X289914Y371202D01*
X289841Y371224D01*
X289757Y371238D01*
X289659Y371246D01*
D02*
G37*
G36*
X288629Y369171D02*
X288625D01*
X288622D01*
X288600Y369167D01*
X288567Y369163D01*
X288524Y369156D01*
X288480Y369138D01*
X288429Y369116D01*
X288382Y369083D01*
X288334Y369040D01*
X288331Y369032D01*
X288316Y369014D01*
X288298Y368985D01*
X288276Y368938D01*
X288254Y368883D01*
X288236Y368810D01*
X288221Y368727D01*
X288218Y368628D01*
Y367835D01*
X289051D01*
Y368585D01*
X289048Y368628D01*
X289044Y368679D01*
X289040Y368738D01*
X289033Y368796D01*
X289022Y368854D01*
X289008Y368905D01*
X289004Y368912D01*
X288997Y368927D01*
X288986Y368949D01*
X288971Y368978D01*
X288949Y369011D01*
X288924Y369043D01*
X288891Y369076D01*
X288855Y369102D01*
X288851Y369105D01*
X288837Y369112D01*
X288815Y369123D01*
X288786Y369138D01*
X288753Y369149D01*
X288716Y369160D01*
X288673Y369167D01*
X288629Y369171D01*
D02*
G37*
G36*
X206639Y367165D02*
X205806D01*
Y366415D01*
X205809Y366372D01*
X205813Y366321D01*
X205817Y366263D01*
X205824Y366204D01*
X205835Y366146D01*
X205850Y366095D01*
X205853Y366088D01*
X205860Y366073D01*
X205871Y366051D01*
X205886Y366022D01*
X205908Y365989D01*
X205933Y365957D01*
X205966Y365924D01*
X206002Y365898D01*
X206006Y365895D01*
X206021Y365888D01*
X206042Y365877D01*
X206071Y365862D01*
X206104Y365851D01*
X206141Y365840D01*
X206184Y365833D01*
X206228Y365829D01*
X206232D01*
X206235D01*
X206257Y365833D01*
X206290Y365837D01*
X206334Y365844D01*
X206377Y365862D01*
X206428Y365884D01*
X206476Y365917D01*
X206523Y365960D01*
X206526Y365968D01*
X206541Y365986D01*
X206559Y366015D01*
X206581Y366062D01*
X206603Y366117D01*
X206621Y366190D01*
X206636Y366273D01*
X206639Y366372D01*
Y367165D01*
D02*
G37*
G36*
X206068Y364774D02*
X206064D01*
X206057D01*
X206046D01*
X206028Y364770D01*
X206006D01*
X205984Y364766D01*
X205930Y364756D01*
X205868Y364737D01*
X205802Y364716D01*
X205737Y364679D01*
X205678Y364632D01*
X205671Y364625D01*
X205657Y364606D01*
X205631Y364574D01*
X205606Y364533D01*
X205576Y364479D01*
X205551Y364417D01*
X205537Y364348D01*
X205529Y364271D01*
Y364250D01*
X205533Y364235D01*
X205537Y364195D01*
X205547Y364148D01*
X205566Y364089D01*
X205591Y364031D01*
X205627Y363973D01*
X205678Y363918D01*
X205686Y363911D01*
X205708Y363896D01*
X205740Y363875D01*
X205788Y363845D01*
X205846Y363820D01*
X205915Y363798D01*
X205999Y363784D01*
X206093Y363776D01*
X206097D01*
X206104D01*
X206119D01*
X206137Y363780D01*
X206163D01*
X206188Y363784D01*
X206246Y363795D01*
X206315Y363809D01*
X206388Y363835D01*
X206457Y363871D01*
X206519Y363918D01*
X206523D01*
X206526Y363926D01*
X206545Y363944D01*
X206570Y363973D01*
X206599Y364013D01*
X206625Y364064D01*
X206650Y364122D01*
X206668Y364188D01*
X206676Y364224D01*
Y364282D01*
X206672Y364297D01*
X206668Y364337D01*
X206654Y364384D01*
X206636Y364442D01*
X206603Y364504D01*
X206563Y364566D01*
X206534Y364595D01*
X206505Y364625D01*
X206501D01*
X206497Y364632D01*
X206487Y364639D01*
X206476Y364646D01*
X206439Y364672D01*
X206388Y364697D01*
X206326Y364726D01*
X206250Y364752D01*
X206163Y364766D01*
X206068Y364774D01*
D02*
G37*
G36*
X149165Y308051D02*
X148415D01*
X148372Y308048D01*
X148321Y308044D01*
X148262Y308040D01*
X148204Y308033D01*
X148146Y308022D01*
X148095Y308008D01*
X148088Y308004D01*
X148073Y307997D01*
X148051Y307986D01*
X148022Y307971D01*
X147989Y307949D01*
X147957Y307924D01*
X147924Y307891D01*
X147898Y307855D01*
X147895Y307851D01*
X147888Y307837D01*
X147877Y307815D01*
X147862Y307786D01*
X147851Y307753D01*
X147840Y307716D01*
X147833Y307673D01*
X147829Y307629D01*
Y307625D01*
Y307622D01*
X147833Y307600D01*
X147837Y307567D01*
X147844Y307523D01*
X147862Y307480D01*
X147884Y307429D01*
X147917Y307382D01*
X147960Y307334D01*
X147968Y307331D01*
X147986Y307316D01*
X148015Y307298D01*
X148062Y307276D01*
X148117Y307254D01*
X148190Y307236D01*
X148273Y307221D01*
X148372Y307218D01*
X149165D01*
Y308051D01*
D02*
G37*
G36*
X144309Y309245D02*
X144288D01*
X144273Y309242D01*
X144237Y309234D01*
X144186Y309220D01*
X144131Y309194D01*
X144069Y309158D01*
X144040Y309136D01*
X144011Y309107D01*
X143982Y309078D01*
X143953Y309041D01*
Y309038D01*
X143945Y309031D01*
X143938Y309019D01*
X143931Y309001D01*
X143916Y308976D01*
X143905Y308943D01*
X143891Y308907D01*
X143876Y308863D01*
X143865Y308808D01*
X143851Y308750D01*
X143836Y308681D01*
X143825Y308608D01*
X143818Y308521D01*
X143811Y308430D01*
X143803Y308328D01*
Y308215D01*
Y308211D01*
Y308208D01*
Y308190D01*
Y308157D01*
X143807Y308113D01*
Y308066D01*
X143811Y308008D01*
X143814Y307946D01*
X143822Y307877D01*
X143840Y307738D01*
X143851Y307669D01*
X143865Y307604D01*
X143880Y307542D01*
X143902Y307484D01*
X143924Y307433D01*
X143949Y307389D01*
Y307385D01*
X143956Y307382D01*
X143964Y307371D01*
X143974Y307356D01*
X144007Y307323D01*
X144047Y307283D01*
X144102Y307247D01*
X144164Y307214D01*
X144197Y307200D01*
X144233Y307189D01*
X144273Y307185D01*
X144313Y307181D01*
X144335D01*
X144349Y307185D01*
X144389Y307192D01*
X144437Y307203D01*
X144491Y307225D01*
X144550Y307258D01*
X144579Y307280D01*
X144608Y307301D01*
X144633Y307331D01*
X144659Y307363D01*
Y307367D01*
X144666Y307374D01*
X144673Y307389D01*
X144684Y307407D01*
X144695Y307436D01*
X144710Y307469D01*
X144721Y307509D01*
X144735Y307556D01*
X144750Y307611D01*
X144764Y307673D01*
X144779Y307742D01*
X144790Y307818D01*
X144801Y307906D01*
X144808Y308000D01*
X144812Y308102D01*
X144815Y308215D01*
Y308222D01*
Y308241D01*
Y308273D01*
X144812Y308317D01*
Y308364D01*
X144808Y308423D01*
X144804Y308485D01*
X144797Y308550D01*
X144779Y308692D01*
X144768Y308761D01*
X144754Y308827D01*
X144739Y308889D01*
X144717Y308947D01*
X144695Y308998D01*
X144670Y309041D01*
Y309045D01*
X144662Y309049D01*
X144644Y309074D01*
X144612Y309107D01*
X144571Y309143D01*
X144517Y309180D01*
X144455Y309212D01*
X144386Y309238D01*
X144349Y309242D01*
X144309Y309245D01*
D02*
G37*
G36*
X150628Y298739D02*
X149835D01*
Y297905D01*
X150585D01*
X150628Y297909D01*
X150679Y297912D01*
X150738Y297916D01*
X150796Y297923D01*
X150854Y297934D01*
X150905Y297949D01*
X150912Y297952D01*
X150927Y297960D01*
X150949Y297971D01*
X150978Y297985D01*
X151011Y298007D01*
X151043Y298032D01*
X151076Y298065D01*
X151102Y298101D01*
X151105Y298105D01*
X151112Y298120D01*
X151123Y298142D01*
X151138Y298171D01*
X151149Y298203D01*
X151160Y298240D01*
X151167Y298284D01*
X151171Y298327D01*
Y298331D01*
Y298335D01*
X151167Y298356D01*
X151163Y298389D01*
X151156Y298433D01*
X151138Y298477D01*
X151116Y298527D01*
X151083Y298575D01*
X151040Y298622D01*
X151032Y298626D01*
X151014Y298640D01*
X150985Y298658D01*
X150938Y298680D01*
X150883Y298702D01*
X150810Y298720D01*
X150727Y298735D01*
X150628Y298739D01*
D02*
G37*
G36*
X288932Y275292D02*
Y274498D01*
X290060D01*
X288932Y275292D01*
D02*
G37*
G36*
X278425Y367165D02*
X277591D01*
Y366415D01*
X277595Y366372D01*
X277599Y366321D01*
X277602Y366262D01*
X277610Y366204D01*
X277621Y366146D01*
X277635Y366095D01*
X277639Y366088D01*
X277646Y366073D01*
X277657Y366051D01*
X277672Y366022D01*
X277693Y365989D01*
X277719Y365957D01*
X277752Y365924D01*
X277788Y365898D01*
X277792Y365895D01*
X277806Y365887D01*
X277828Y365877D01*
X277857Y365862D01*
X277890Y365851D01*
X277926Y365840D01*
X277970Y365833D01*
X278014Y365829D01*
X278017D01*
X278021D01*
X278043Y365833D01*
X278076Y365837D01*
X278119Y365844D01*
X278163Y365862D01*
X278214Y365884D01*
X278261Y365917D01*
X278309Y365960D01*
X278312Y365968D01*
X278327Y365986D01*
X278345Y366015D01*
X278367Y366062D01*
X278389Y366117D01*
X278407Y366190D01*
X278421Y366273D01*
X278425Y366372D01*
Y367165D01*
D02*
G37*
G36*
X192239D02*
X191405D01*
Y366415D01*
X191409Y366372D01*
X191412Y366321D01*
X191416Y366262D01*
X191423Y366204D01*
X191434Y366146D01*
X191449Y366095D01*
X191452Y366088D01*
X191460Y366073D01*
X191471Y366051D01*
X191485Y366022D01*
X191507Y365989D01*
X191532Y365957D01*
X191565Y365924D01*
X191602Y365898D01*
X191605Y365895D01*
X191620Y365887D01*
X191642Y365877D01*
X191671Y365862D01*
X191703Y365851D01*
X191740Y365840D01*
X191783Y365833D01*
X191827Y365829D01*
X191831D01*
X191834D01*
X191856Y365833D01*
X191889Y365837D01*
X191933Y365844D01*
X191976Y365862D01*
X192027Y365884D01*
X192075Y365917D01*
X192122Y365960D01*
X192126Y365968D01*
X192140Y365986D01*
X192158Y366015D01*
X192180Y366062D01*
X192202Y366117D01*
X192220Y366190D01*
X192235Y366273D01*
X192239Y366372D01*
Y367165D01*
D02*
G37*
G36*
X150128Y325282D02*
X149335D01*
Y324449D01*
X150085D01*
X150128Y324452D01*
X150179Y324456D01*
X150238Y324460D01*
X150296Y324467D01*
X150354Y324478D01*
X150405Y324492D01*
X150412Y324496D01*
X150427Y324503D01*
X150449Y324514D01*
X150478Y324529D01*
X150511Y324551D01*
X150543Y324576D01*
X150576Y324609D01*
X150601Y324645D01*
X150605Y324649D01*
X150612Y324663D01*
X150623Y324685D01*
X150638Y324714D01*
X150649Y324747D01*
X150660Y324784D01*
X150667Y324827D01*
X150671Y324871D01*
Y324874D01*
Y324878D01*
X150667Y324900D01*
X150663Y324933D01*
X150656Y324976D01*
X150638Y325020D01*
X150616Y325071D01*
X150583Y325118D01*
X150540Y325166D01*
X150532Y325169D01*
X150514Y325184D01*
X150485Y325202D01*
X150438Y325224D01*
X150383Y325246D01*
X150310Y325264D01*
X150227Y325279D01*
X150128Y325282D01*
D02*
G37*
G36*
X152236Y325319D02*
X152207D01*
X152174Y325311D01*
X152130Y325304D01*
X152083Y325290D01*
X152032Y325271D01*
X151985Y325242D01*
X151937Y325202D01*
X151934Y325199D01*
X151919Y325184D01*
X151901Y325159D01*
X151883Y325126D01*
X151861Y325086D01*
X151843Y325038D01*
X151828Y324987D01*
X151825Y324929D01*
Y324925D01*
Y324922D01*
X151828Y324900D01*
X151832Y324867D01*
X151839Y324827D01*
X151854Y324780D01*
X151872Y324733D01*
X151901Y324682D01*
X151937Y324638D01*
X151941Y324634D01*
X151959Y324620D01*
X151985Y324602D01*
X152017Y324583D01*
X152061Y324562D01*
X152112Y324543D01*
X152170Y324529D01*
X152236Y324525D01*
X152243D01*
X152265Y324529D01*
X152298Y324532D01*
X152341Y324540D01*
X152389Y324554D01*
X152436Y324572D01*
X152487Y324602D01*
X152531Y324638D01*
X152534Y324642D01*
X152549Y324660D01*
X152567Y324682D01*
X152589Y324714D01*
X152611Y324754D01*
X152629Y324802D01*
X152644Y324856D01*
X152647Y324915D01*
Y324918D01*
Y324922D01*
Y324944D01*
X152640Y324976D01*
X152633Y325016D01*
X152618Y325060D01*
X152596Y325108D01*
X152567Y325155D01*
X152527Y325202D01*
X152524Y325206D01*
X152505Y325220D01*
X152480Y325238D01*
X152447Y325260D01*
X152403Y325282D01*
X152356Y325300D01*
X152298Y325315D01*
X152236Y325319D01*
D02*
G37*
G36*
X152225Y324274D02*
X152203D01*
X152189Y324270D01*
X152149Y324267D01*
X152098Y324256D01*
X152039Y324238D01*
X151981Y324212D01*
X151919Y324176D01*
X151865Y324128D01*
X151857Y324121D01*
X151843Y324103D01*
X151821Y324070D01*
X151795Y324030D01*
X151766Y323975D01*
X151744Y323914D01*
X151730Y323844D01*
X151723Y323768D01*
Y323761D01*
Y323746D01*
X151726Y323721D01*
X151730Y323688D01*
X151737Y323648D01*
X151748Y323604D01*
X151763Y323561D01*
X151781Y323513D01*
X151785Y323510D01*
X151792Y323491D01*
X151806Y323469D01*
X151828Y323444D01*
X151854Y323411D01*
X151886Y323378D01*
X151923Y323349D01*
X151967Y323320D01*
X151974Y323317D01*
X151988Y323309D01*
X152014Y323298D01*
X152047Y323288D01*
X152087Y323277D01*
X152134Y323266D01*
X152185Y323258D01*
X152236Y323255D01*
X152258D01*
X152272Y323258D01*
X152316Y323262D01*
X152367Y323273D01*
X152425Y323291D01*
X152487Y323313D01*
X152545Y323349D01*
X152603Y323397D01*
X152611Y323404D01*
X152625Y323422D01*
X152651Y323455D01*
X152676Y323495D01*
X152702Y323546D01*
X152727Y323608D01*
X152742Y323681D01*
X152749Y323757D01*
Y323761D01*
Y323768D01*
Y323779D01*
X152745Y323794D01*
X152742Y323833D01*
X152731Y323888D01*
X152713Y323943D01*
X152687Y324005D01*
X152651Y324066D01*
X152600Y324125D01*
X152593Y324132D01*
X152574Y324147D01*
X152542Y324172D01*
X152498Y324201D01*
X152443Y324227D01*
X152378Y324252D01*
X152305Y324267D01*
X152225Y324274D01*
D02*
G37*
%LPD*%
D11*
X174327Y353500D02*
X174281Y354499D01*
X174142Y355489D01*
X173914Y356463D01*
X173596Y357411D01*
X173192Y358326D01*
X172705Y359200D01*
X172140Y360025D01*
X171501Y360794D01*
X170794Y361501D01*
X170025Y362140D01*
X169200Y362705D01*
X168326Y363192D01*
X167411Y363596D01*
X166463Y363913D01*
X165489Y364142D01*
X164499Y364281D01*
X163500Y364327D01*
X162501Y364281D01*
X161511Y364142D01*
X160537Y363913D01*
X159589Y363596D01*
X158674Y363192D01*
X157800Y362705D01*
X156975Y362140D01*
X156206Y361501D01*
X155499Y360794D01*
X154860Y360025D01*
X154295Y359200D01*
X153808Y358326D01*
X153404Y357411D01*
X153086Y356463D01*
X152858Y355489D01*
X152719Y354499D01*
X152673Y353500D01*
X152719Y352501D01*
X152858Y351511D01*
X153086Y350537D01*
X153404Y349589D01*
X153808Y348674D01*
X154295Y347800D01*
X154860Y346975D01*
X155499Y346206D01*
X156206Y345499D01*
X156975Y344860D01*
X157800Y344295D01*
X158674Y343808D01*
X159589Y343404D01*
X160537Y343087D01*
X161511Y342858D01*
X162501Y342719D01*
X163500Y342673D01*
X164499Y342719D01*
X165489Y342858D01*
X166463Y343087D01*
X167411Y343404D01*
X168326Y343808D01*
X169200Y344295D01*
X170025Y344860D01*
X170794Y345499D01*
X171501Y346206D01*
X172140Y346975D01*
X172705Y347800D01*
X173192Y348674D01*
X173596Y349589D01*
X173914Y350537D01*
X174142Y351511D01*
X174281Y352501D01*
X174327Y353500D01*
X301327Y315000D02*
X301281Y315999D01*
X301142Y316989D01*
X300914Y317963D01*
X300596Y318911D01*
X300192Y319826D01*
X299705Y320700D01*
X299140Y321525D01*
X298501Y322294D01*
X297794Y323001D01*
X297025Y323640D01*
X296200Y324205D01*
X295326Y324692D01*
X294411Y325096D01*
X293463Y325413D01*
X292489Y325642D01*
X291499Y325781D01*
X290500Y325827D01*
X289501Y325781D01*
X288511Y325642D01*
X287537Y325413D01*
X286589Y325096D01*
X285674Y324692D01*
X284800Y324205D01*
X283975Y323640D01*
X283206Y323001D01*
X282499Y322294D01*
X281860Y321525D01*
X281295Y320700D01*
X280808Y319826D01*
X280404Y318911D01*
X280086Y317963D01*
X279858Y316989D01*
X279719Y315999D01*
X279673Y315000D01*
X279719Y314001D01*
X279858Y313011D01*
X280086Y312037D01*
X280404Y311089D01*
X280808Y310174D01*
X281295Y309300D01*
X281860Y308475D01*
X282499Y307706D01*
X283206Y306999D01*
X283975Y306360D01*
X284800Y305795D01*
X285674Y305308D01*
X286589Y304904D01*
X287537Y304587D01*
X288511Y304358D01*
X289501Y304219D01*
X290500Y304173D01*
X291499Y304219D01*
X292489Y304358D01*
X293463Y304587D01*
X294411Y304904D01*
X295326Y305308D01*
X296200Y305795D01*
X297025Y306360D01*
X297794Y306999D01*
X298501Y307706D01*
X299140Y308475D01*
X299705Y309300D01*
X300192Y310174D01*
X300596Y311089D01*
X300914Y312037D01*
X301142Y313011D01*
X301281Y314001D01*
X301327Y315000D01*
X148827Y354000D02*
X148781Y354999D01*
X148642Y355989D01*
X148414Y356963D01*
X148096Y357911D01*
X147692Y358826D01*
X147205Y359700D01*
X146640Y360525D01*
X146001Y361294D01*
X145294Y362001D01*
X144525Y362640D01*
X143700Y363205D01*
X142826Y363692D01*
X141911Y364096D01*
X140963Y364413D01*
X139989Y364642D01*
X138999Y364781D01*
X138000Y364827D01*
X137001Y364781D01*
X136011Y364642D01*
X135037Y364413D01*
X134089Y364096D01*
X133174Y363692D01*
X132300Y363205D01*
X131475Y362640D01*
X130706Y362001D01*
X129999Y361294D01*
X129360Y360525D01*
X128795Y359700D01*
X128308Y358826D01*
X127904Y357911D01*
X127586Y356963D01*
X127358Y355989D01*
X127219Y354999D01*
X127173Y354000D01*
X127219Y353001D01*
X127358Y352011D01*
X127586Y351037D01*
X127904Y350089D01*
X128308Y349174D01*
X128795Y348301D01*
X129360Y347475D01*
X129999Y346706D01*
X130706Y345999D01*
X131475Y345360D01*
X132300Y344795D01*
X133174Y344308D01*
X134089Y343904D01*
X135037Y343586D01*
X136011Y343358D01*
X137001Y343219D01*
X138000Y343173D01*
X138999Y343219D01*
X139989Y343358D01*
X140963Y343586D01*
X141911Y343904D01*
X142826Y344308D01*
X143700Y344795D01*
X144525Y345360D01*
X145294Y345999D01*
X146001Y346706D01*
X146640Y347475D01*
X147205Y348301D01*
X147692Y349174D01*
X148096Y350089D01*
X148414Y351037D01*
X148642Y352011D01*
X148781Y353001D01*
X148827Y354000D01*
X174327Y353500D02*
X174281Y354499D01*
X174142Y355489D01*
X173914Y356463D01*
X173596Y357411D01*
X173192Y358326D01*
X172705Y359200D01*
X172140Y360025D01*
X171501Y360794D01*
X170794Y361501D01*
X170025Y362140D01*
X169200Y362705D01*
X168326Y363192D01*
X167411Y363596D01*
X166463Y363913D01*
X165489Y364142D01*
X164499Y364281D01*
X163500Y364327D01*
X162501Y364281D01*
X161511Y364142D01*
X160537Y363913D01*
X159589Y363596D01*
X158674Y363192D01*
X157800Y362705D01*
X156975Y362140D01*
X156206Y361501D01*
X155499Y360794D01*
X154860Y360025D01*
X154295Y359200D01*
X153808Y358326D01*
X153404Y357411D01*
X153086Y356463D01*
X152858Y355489D01*
X152719Y354499D01*
X152673Y353500D01*
X152719Y352501D01*
X152858Y351511D01*
X153086Y350537D01*
X153404Y349589D01*
X153808Y348674D01*
X154295Y347800D01*
X154860Y346975D01*
X155499Y346206D01*
X156206Y345499D01*
X156975Y344860D01*
X157800Y344295D01*
X158674Y343808D01*
X159589Y343404D01*
X160537Y343087D01*
X161511Y342858D01*
X162501Y342719D01*
X163500Y342673D01*
X164499Y342719D01*
X165489Y342858D01*
X166463Y343087D01*
X167411Y343404D01*
X168326Y343808D01*
X169200Y344295D01*
X170025Y344860D01*
X170794Y345499D01*
X171501Y346206D01*
X172140Y346975D01*
X172705Y347800D01*
X173192Y348674D01*
X173596Y349589D01*
X173914Y350537D01*
X174142Y351511D01*
X174281Y352501D01*
X174327Y353500D01*
X301327Y315000D02*
X301281Y315999D01*
X301142Y316989D01*
X300914Y317963D01*
X300596Y318911D01*
X300192Y319826D01*
X299705Y320700D01*
X299140Y321525D01*
X298501Y322294D01*
X297794Y323001D01*
X297025Y323640D01*
X296200Y324205D01*
X295326Y324692D01*
X294411Y325096D01*
X293463Y325413D01*
X292489Y325642D01*
X291499Y325781D01*
X290500Y325827D01*
X289501Y325781D01*
X288511Y325642D01*
X287537Y325413D01*
X286589Y325096D01*
X285674Y324692D01*
X284800Y324205D01*
X283975Y323640D01*
X283206Y323001D01*
X282499Y322294D01*
X281860Y321525D01*
X281295Y320700D01*
X280808Y319826D01*
X280404Y318911D01*
X280086Y317963D01*
X279858Y316989D01*
X279719Y315999D01*
X279673Y315000D01*
X279719Y314001D01*
X279858Y313011D01*
X280086Y312037D01*
X280404Y311089D01*
X280808Y310174D01*
X281295Y309300D01*
X281860Y308475D01*
X282499Y307706D01*
X283206Y306999D01*
X283975Y306360D01*
X284800Y305795D01*
X285674Y305308D01*
X286589Y304904D01*
X287537Y304587D01*
X288511Y304358D01*
X289501Y304219D01*
X290500Y304173D01*
X291499Y304219D01*
X292489Y304358D01*
X293463Y304587D01*
X294411Y304904D01*
X295326Y305308D01*
X296200Y305795D01*
X297025Y306360D01*
X297794Y306999D01*
X298501Y307706D01*
X299140Y308475D01*
X299705Y309300D01*
X300192Y310174D01*
X300596Y311089D01*
X300914Y312037D01*
X301142Y313011D01*
X301281Y314001D01*
X301327Y315000D01*
X148827Y354000D02*
X148781Y354999D01*
X148642Y355989D01*
X148414Y356963D01*
X148096Y357911D01*
X147692Y358826D01*
X147205Y359700D01*
X146640Y360525D01*
X146001Y361294D01*
X145294Y362001D01*
X144525Y362640D01*
X143700Y363205D01*
X142826Y363692D01*
X141911Y364096D01*
X140963Y364413D01*
X139989Y364642D01*
X138999Y364781D01*
X138000Y364827D01*
X137001Y364781D01*
X136011Y364642D01*
X135037Y364413D01*
X134089Y364096D01*
X133174Y363692D01*
X132300Y363205D01*
X131475Y362640D01*
X130706Y362001D01*
X129999Y361294D01*
X129360Y360525D01*
X128795Y359700D01*
X128308Y358826D01*
X127904Y357911D01*
X127586Y356963D01*
X127358Y355989D01*
X127219Y354999D01*
X127173Y354000D01*
X127219Y353001D01*
X127358Y352011D01*
X127586Y351037D01*
X127904Y350089D01*
X128308Y349174D01*
X128795Y348301D01*
X129360Y347475D01*
X129999Y346706D01*
X130706Y345999D01*
X131475Y345360D01*
X132300Y344795D01*
X133174Y344308D01*
X134089Y343904D01*
X135037Y343586D01*
X136011Y343358D01*
X137001Y343219D01*
X138000Y343173D01*
X138999Y343219D01*
X139989Y343358D01*
X140963Y343586D01*
X141911Y343904D01*
X142826Y344308D01*
X143700Y344795D01*
X144525Y345360D01*
X145294Y345999D01*
X146001Y346706D01*
X146640Y347475D01*
X147205Y348301D01*
X147692Y349174D01*
X148096Y350089D01*
X148414Y351037D01*
X148642Y352011D01*
X148781Y353001D01*
X148827Y354000D01*
D12*
X227953Y354114D02*
X238190D01*
Y380886D01*
X227953D02*
X238190D01*
X227953Y354114D02*
Y380886D01*
X242311D02*
X252547D01*
X242311Y354114D02*
Y380886D01*
Y354114D02*
X252547D01*
Y380886D01*
X256668Y354114D02*
X266904D01*
Y380886D01*
X256668D02*
X266904D01*
X256668Y354114D02*
Y380886D01*
X285382Y354114D02*
X295618D01*
Y380886D01*
X285382D02*
X295618D01*
X285382Y354114D02*
Y380886D01*
X199239D02*
X209475D01*
X199239Y354114D02*
Y380886D01*
Y354114D02*
X209475D01*
Y380886D01*
X162886Y304382D02*
Y314618D01*
X136114D02*
X162886D01*
X136114Y304382D02*
Y314618D01*
Y304382D02*
X162886D01*
X136114Y291382D02*
Y301618D01*
Y291382D02*
X162886D01*
Y301618D01*
X136114D02*
X162886D01*
X283079Y285874D02*
X292921D01*
X283079Y270126D02*
Y285874D01*
Y270126D02*
X292921D01*
Y285874D01*
X271025Y380886D02*
X281261D01*
X271025Y354114D02*
Y380886D01*
Y354114D02*
X281261D01*
Y380886D01*
X184882D02*
X195118D01*
X184882Y354114D02*
Y380886D01*
Y354114D02*
X195118D01*
Y380886D01*
X135614Y317882D02*
Y328118D01*
Y317882D02*
X162386D01*
Y328118D01*
X135614D02*
X162386D01*
X376126Y331079D02*
Y340921D01*
Y331079D02*
X391874D01*
Y340921D01*
X376126D02*
X391874D01*
X376626Y310079D02*
Y319921D01*
Y310079D02*
X392374D01*
Y319921D01*
X376626D02*
X392374D01*
X227953Y354114D02*
X238190D01*
Y380886D01*
X227953D02*
X238190D01*
X227953Y354114D02*
Y380886D01*
X242311D02*
X252547D01*
X242311Y354114D02*
Y380886D01*
Y354114D02*
X252547D01*
Y380886D01*
X256668Y354114D02*
X266904D01*
Y380886D01*
X256668D02*
X266904D01*
X256668Y354114D02*
Y380886D01*
X285382Y354114D02*
X295618D01*
Y380886D01*
X285382D02*
X295618D01*
X285382Y354114D02*
Y380886D01*
X199239D02*
X209475D01*
X199239Y354114D02*
Y380886D01*
Y354114D02*
X209475D01*
Y380886D01*
X162886Y304382D02*
Y314618D01*
X136114D02*
X162886D01*
X136114Y304382D02*
Y314618D01*
Y304382D02*
X162886D01*
X136114Y291382D02*
Y301618D01*
Y291382D02*
X162886D01*
Y301618D01*
X136114D02*
X162886D01*
X283079Y285874D02*
X292921D01*
X283079Y270126D02*
Y285874D01*
Y270126D02*
X292921D01*
Y285874D01*
X271025Y380886D02*
X281261D01*
X271025Y354114D02*
Y380886D01*
Y354114D02*
X281261D01*
Y380886D01*
X184882D02*
X195118D01*
X184882Y354114D02*
Y380886D01*
Y354114D02*
X195118D01*
Y380886D01*
X135614Y317882D02*
Y328118D01*
Y317882D02*
X162386D01*
Y328118D01*
X135614D02*
X162386D01*
X376126Y331079D02*
Y340921D01*
Y331079D02*
X391874D01*
Y340921D01*
X376126D02*
X391874D01*
X376626Y310079D02*
Y319921D01*
Y310079D02*
X392374D01*
Y319921D01*
X376626D02*
X392374D01*
X152279Y353500D02*
X152325Y352494D01*
X152460Y351497D01*
X152684Y350515D01*
X152995Y349557D01*
X153391Y348632D01*
X153868Y347745D01*
X154422Y346905D01*
X155050Y346118D01*
X155746Y345390D01*
X156504Y344727D01*
X157319Y344136D01*
X158183Y343619D01*
X159090Y343182D01*
X160033Y342829D01*
X161003Y342561D01*
X161994Y342381D01*
X162997Y342291D01*
X164003D01*
X165006Y342381D01*
X165997Y342561D01*
X166967Y342829D01*
X167910Y343182D01*
X168817Y343619D01*
X169681Y344136D01*
X170496Y344727D01*
X171254Y345390D01*
X171950Y346118D01*
X172578Y346905D01*
X173132Y347745D01*
X173609Y348632D01*
X174005Y349557D01*
X174316Y350515D01*
X174540Y351497D01*
X174675Y352494D01*
X174721Y353500D01*
Y353500D02*
X174675Y354506D01*
X174540Y355504D01*
X174316Y356485D01*
X174005Y357443D01*
X173609Y358368D01*
X173132Y359255D01*
X172578Y360095D01*
X171950Y360882D01*
X171254Y361610D01*
X170496Y362273D01*
X169681Y362864D01*
X168817Y363381D01*
X167910Y363818D01*
X166967Y364171D01*
X165997Y364439D01*
X165006Y364619D01*
X164003Y364709D01*
X162997D01*
X161994Y364619D01*
X161003Y364439D01*
X160033Y364171D01*
X159090Y363818D01*
X158183Y363381D01*
X157319Y362864D01*
X156504Y362273D01*
X155746Y361610D01*
X155050Y360882D01*
X154422Y360095D01*
X153868Y359255D01*
X153391Y358368D01*
X152995Y357443D01*
X152684Y356485D01*
X152460Y355504D01*
X152325Y354506D01*
X152279Y353500D01*
X290500Y303780D02*
X291506Y303825D01*
X292503Y303960D01*
X293485Y304184D01*
X294443Y304495D01*
X295368Y304891D01*
X296255Y305368D01*
X297095Y305922D01*
X297882Y306550D01*
X298610Y307246D01*
X299272Y308004D01*
X299864Y308819D01*
X300381Y309683D01*
X300817Y310590D01*
X301171Y311533D01*
X301439Y312503D01*
X301619Y313494D01*
X301709Y314497D01*
Y315503D01*
X301619Y316506D01*
X301439Y317497D01*
X301171Y318467D01*
X300817Y319410D01*
X300381Y320317D01*
X299864Y321181D01*
X299272Y321996D01*
X298610Y322754D01*
X297882Y323450D01*
X297095Y324078D01*
X296255Y324632D01*
X295368Y325109D01*
X294443Y325505D01*
X293485Y325816D01*
X292503Y326040D01*
X291506Y326175D01*
X290500Y326220D01*
X290500D02*
X289494Y326175D01*
X288496Y326040D01*
X287515Y325816D01*
X286557Y325505D01*
X285632Y325109D01*
X284745Y324632D01*
X283905Y324078D01*
X283118Y323450D01*
X282390Y322754D01*
X281728Y321996D01*
X281136Y321181D01*
X280619Y320317D01*
X280183Y319410D01*
X279829Y318467D01*
X279561Y317497D01*
X279381Y316506D01*
X279291Y315503D01*
Y314497D01*
X279381Y313494D01*
X279561Y312503D01*
X279829Y311533D01*
X280183Y310590D01*
X280619Y309683D01*
X281136Y308819D01*
X281728Y308004D01*
X282390Y307246D01*
X283118Y306550D01*
X283905Y305923D01*
X284745Y305368D01*
X285632Y304891D01*
X286557Y304495D01*
X287515Y304184D01*
X288496Y303960D01*
X289494Y303825D01*
X290500Y303780D01*
X138000Y342779D02*
X139006Y342825D01*
X140004Y342960D01*
X140985Y343184D01*
X141943Y343495D01*
X142868Y343891D01*
X143755Y344368D01*
X144595Y344922D01*
X145382Y345550D01*
X146110Y346246D01*
X146773Y347004D01*
X147364Y347819D01*
X147881Y348683D01*
X148318Y349590D01*
X148671Y350533D01*
X148939Y351503D01*
X149119Y352494D01*
X149209Y353497D01*
Y354503D01*
X149119Y355506D01*
X148939Y356497D01*
X148671Y357467D01*
X148318Y358410D01*
X147881Y359317D01*
X147364Y360181D01*
X146773Y360996D01*
X146110Y361754D01*
X145382Y362450D01*
X144595Y363077D01*
X143755Y363632D01*
X142868Y364109D01*
X141943Y364505D01*
X140985Y364816D01*
X140004Y365040D01*
X139006Y365175D01*
X138000Y365220D01*
X138000D02*
X136994Y365175D01*
X135996Y365040D01*
X135015Y364816D01*
X134057Y364505D01*
X133132Y364109D01*
X132245Y363632D01*
X131405Y363078D01*
X130618Y362450D01*
X129890Y361754D01*
X129227Y360996D01*
X128636Y360181D01*
X128119Y359317D01*
X127682Y358410D01*
X127329Y357467D01*
X127061Y356497D01*
X126881Y355506D01*
X126791Y354503D01*
Y353497D01*
X126881Y352494D01*
X127061Y351503D01*
X127329Y350533D01*
X127682Y349590D01*
X128119Y348683D01*
X128636Y347819D01*
X129227Y347004D01*
X129890Y346246D01*
X130618Y345550D01*
X131405Y344922D01*
X132245Y344368D01*
X133132Y343891D01*
X134057Y343495D01*
X135015Y343184D01*
X135996Y342960D01*
X136994Y342825D01*
X138000Y342779D01*
X227560Y344961D02*
X238583D01*
Y390039D01*
X227560D02*
X238583D01*
X227560Y344961D02*
Y390039D01*
X241917D02*
X252940D01*
X241917Y344961D02*
Y390039D01*
Y344961D02*
X252940D01*
Y390039D01*
X256274Y344961D02*
X267298D01*
Y390039D01*
X256274D02*
X267298D01*
X256274Y344961D02*
Y390039D01*
X284988Y344961D02*
X296012D01*
Y390039D01*
X284988D02*
X296012D01*
X284988Y344961D02*
Y390039D01*
X198845D02*
X209869D01*
X198845Y344961D02*
Y390039D01*
Y344961D02*
X209869D01*
Y390039D01*
X172039Y303988D02*
Y315012D01*
X126961D02*
X172039D01*
X126961Y303988D02*
Y315012D01*
Y303988D02*
X172039D01*
X126961Y290988D02*
Y302012D01*
Y290988D02*
X172039D01*
Y302012D01*
X126961D02*
X172039D01*
X282685Y290598D02*
X293315D01*
X282685Y265402D02*
Y290598D01*
Y265402D02*
X293315D01*
Y290598D01*
X270631Y390039D02*
X281655D01*
X270631Y344961D02*
Y390039D01*
Y344961D02*
X281655D01*
Y390039D01*
X184488D02*
X195512D01*
X184488Y344961D02*
Y390039D01*
Y344961D02*
X195512D01*
Y390039D01*
X126461Y317488D02*
Y328512D01*
Y317488D02*
X171539D01*
Y328512D01*
X126461D02*
X171539D01*
X371402Y330685D02*
Y341315D01*
Y330685D02*
X396598D01*
Y341315D01*
X371402D02*
X396598D01*
X371902Y309685D02*
Y320315D01*
Y309685D02*
X397098D01*
Y320315D01*
X371902D02*
X397098D01*
X227560Y344961D02*
X238583D01*
Y390039D01*
X227560D02*
X238583D01*
X227560Y344961D02*
Y390039D01*
X241917D02*
X252940D01*
X241917Y344961D02*
Y390039D01*
Y344961D02*
X252940D01*
Y390039D01*
X256274Y344961D02*
X267298D01*
Y390039D01*
X256274D02*
X267298D01*
X256274Y344961D02*
Y390039D01*
X284988Y344961D02*
X296012D01*
Y390039D01*
X284988D02*
X296012D01*
X284988Y344961D02*
Y390039D01*
X198845D02*
X209869D01*
X198845Y344961D02*
Y390039D01*
Y344961D02*
X209869D01*
Y390039D01*
X172039Y303988D02*
Y315012D01*
X126961D02*
X172039D01*
X126961Y303988D02*
Y315012D01*
Y303988D02*
X172039D01*
X126961Y290988D02*
Y302012D01*
Y290988D02*
X172039D01*
Y302012D01*
X126961D02*
X172039D01*
X282685Y290598D02*
X293315D01*
X282685Y265402D02*
Y290598D01*
Y265402D02*
X293315D01*
Y290598D01*
X270631Y390039D02*
X281655D01*
X270631Y344961D02*
Y390039D01*
Y344961D02*
X281655D01*
Y390039D01*
X184488D02*
X195512D01*
X184488Y344961D02*
Y390039D01*
Y344961D02*
X195512D01*
Y390039D01*
X126461Y317488D02*
Y328512D01*
Y317488D02*
X171539D01*
Y328512D01*
X126461D02*
X171539D01*
X371402Y330685D02*
Y341315D01*
Y330685D02*
X396598D01*
Y341315D01*
X371402D02*
X396598D01*
X371902Y309685D02*
Y320315D01*
Y309685D02*
X397098D01*
Y320315D01*
X371902D02*
X397098D01*
X162071Y249630D02*
Y268370D01*
X176323D01*
Y249630D02*
Y268370D01*
X162071Y249630D02*
X176323D01*
X133571D02*
Y268370D01*
X147823D01*
Y249630D02*
Y268370D01*
X133571Y249630D02*
X147823D01*
X200366Y311071D02*
X219106D01*
X200366D02*
Y325323D01*
X219106D01*
Y311071D02*
Y325323D01*
D14*
X231103Y367500D02*
X235040D01*
X233071Y365531D02*
Y369468D01*
X245460Y367500D02*
X249397D01*
X247429Y365531D02*
Y369468D01*
X259817Y367500D02*
X263754D01*
X261786Y365531D02*
Y369468D01*
X163500Y351532D02*
Y355469D01*
X161531Y353500D02*
X165469D01*
X288531Y367500D02*
X292469D01*
X290500Y365531D02*
Y369468D01*
X202389Y367500D02*
X206326D01*
X204357Y365531D02*
Y369468D01*
X149500Y307531D02*
Y311469D01*
X147531Y309500D02*
X151469D01*
X149500Y294531D02*
Y298468D01*
X147531Y296500D02*
X151469D01*
X286032Y278000D02*
X289968D01*
X288000Y276031D02*
Y279969D01*
X274174Y367500D02*
X278111D01*
X276143Y365531D02*
Y369468D01*
X188032Y367500D02*
X191969D01*
X190000Y365531D02*
Y369468D01*
X149000Y321032D02*
Y324969D01*
X147032Y323000D02*
X150969D01*
X288532Y315000D02*
X292469D01*
X290500Y313032D02*
Y316969D01*
X136032Y354000D02*
X139969D01*
X138000Y352032D02*
Y355969D01*
X384000Y334032D02*
Y337968D01*
X382032Y336000D02*
X385969D01*
X384500Y313031D02*
Y316968D01*
X382532Y315000D02*
X386469D01*
X365154Y339189D02*
X365100Y340179D01*
X364939Y341157D01*
X364674Y342112D01*
X364307Y343033D01*
X363843Y343908D01*
X363287Y344728D01*
X362645Y345484D01*
X361926Y346165D01*
X361137Y346765D01*
X360288Y347276D01*
X359388Y347692D01*
X358449Y348009D01*
X357481Y348222D01*
X356496Y348329D01*
X355504D01*
X354519Y348222D01*
X353551Y348009D01*
X352612Y347692D01*
X351712Y347276D01*
X350863Y346765D01*
X350074Y346165D01*
X349355Y345484D01*
X348713Y344728D01*
X348157Y343908D01*
X347692Y343033D01*
X347326Y342112D01*
X347060Y341157D01*
X346900Y340179D01*
X346847Y339189D01*
X348716Y313500D02*
X348784Y312508D01*
X348987Y311535D01*
X349320Y310598D01*
X349777Y309716D01*
X350350Y308904D01*
X351029Y308177D01*
X351800Y307550D01*
X352649Y307033D01*
X353561Y306637D01*
X354518Y306369D01*
X355503Y306234D01*
X356497D01*
X357482Y306369D01*
X358439Y306637D01*
X359351Y307033D01*
X360200Y307550D01*
X360971Y308177D01*
X361650Y308904D01*
X362223Y309716D01*
X362681Y310598D01*
X363013Y311535D01*
X363216Y312508D01*
X363283Y313500D01*
Y338500D02*
X363216Y339492D01*
X363013Y340465D01*
X362681Y341402D01*
X362223Y342284D01*
X361650Y343096D01*
X360971Y343823D01*
X360200Y344450D01*
X359351Y344967D01*
X358439Y345363D01*
X357482Y345631D01*
X356497Y345766D01*
X355503D01*
X354518Y345631D01*
X353561Y345363D01*
X352649Y344967D01*
X351800Y344450D01*
X351029Y343823D01*
X350350Y343096D01*
X349777Y342284D01*
X349320Y341402D01*
X348987Y340465D01*
X348784Y339492D01*
X348716Y338500D01*
X346847Y312811D02*
X346900Y311821D01*
X347060Y310843D01*
X347326Y309888D01*
X347692Y308967D01*
X348157Y308092D01*
X348713Y307272D01*
X349355Y306516D01*
X350074Y305835D01*
X350863Y305235D01*
X351712Y304724D01*
X352612Y304308D01*
X353551Y303991D01*
X354519Y303778D01*
X355504Y303671D01*
X356496D01*
X357481Y303778D01*
X358449Y303991D01*
X359388Y304308D01*
X360288Y304724D01*
X361137Y305235D01*
X361926Y305835D01*
X362645Y306516D01*
X363287Y307272D01*
X363843Y308092D01*
X364307Y308968D01*
X364674Y309888D01*
X364939Y310843D01*
X365100Y311821D01*
X365154Y312811D01*
X335598Y253555D02*
X335335Y254539D01*
X334614Y255260D01*
X333630Y255524D01*
X332646Y255260D01*
X331925Y254539D01*
X331661Y253555D01*
X331925Y252571D01*
X332646Y251850D01*
X333630Y251587D01*
X334614Y251850D01*
X335335Y252571D01*
X335598Y253555D01*
X232492Y263240D02*
Y290760D01*
X206508Y263240D02*
Y290760D01*
Y263240D02*
X232492D01*
X206508Y290760D02*
X232492D01*
X301992Y200240D02*
Y227760D01*
X276008Y200240D02*
Y227760D01*
Y200240D02*
X301992D01*
X276008Y227760D02*
X301992D01*
X453992Y320240D02*
Y347760D01*
X428008Y320240D02*
Y347760D01*
Y320240D02*
X453992D01*
X428008Y347760D02*
X453992D01*
X241874Y311760D02*
X269866D01*
Y234240D02*
Y311760D01*
X241874Y234240D02*
X269866D01*
X241874D02*
Y311760D01*
Y306760D02*
X246874Y311760D01*
X348717Y312614D02*
Y338500D01*
X363283Y312614D02*
Y338500D01*
X346846Y312811D02*
Y339189D01*
X365154Y312811D02*
Y339189D01*
X308827Y388988D02*
X337173D01*
X308827Y250012D02*
X337173D01*
X308827D02*
Y388988D01*
X337173Y250012D02*
Y388988D01*
X132528Y384602D02*
X173472D01*
Y371610D02*
Y389720D01*
X132528D02*
X173472D01*
X132528Y371610D02*
Y389720D01*
Y371610D02*
X173472D01*
X217531Y277000D02*
X221468D01*
X219500Y275031D02*
Y278969D01*
X287032Y214000D02*
X290968D01*
X289000Y212032D02*
Y215968D01*
X439032Y334000D02*
X442969D01*
X441000Y332031D02*
Y335968D01*
X158134Y237740D02*
Y276114D01*
X180260D01*
Y237740D02*
Y276114D01*
X158134Y237740D02*
X180260D01*
X129634D02*
Y276114D01*
X151760D01*
Y237740D02*
Y276114D01*
X129634Y237740D02*
X151760D01*
X192622Y307134D02*
X230996D01*
X192622D02*
Y329260D01*
X230996D01*
Y307134D02*
Y329260D01*
X354032Y326000D02*
X357969D01*
X356000Y324031D02*
Y327968D01*
X323000Y317531D02*
Y321468D01*
X321032Y319500D02*
X324969D01*
X153000Y376531D02*
Y380468D01*
X151032Y378500D02*
X154969D01*
D15*
X467500Y198500D02*
Y401500D01*
X100000Y198500D02*
Y401000D01*
Y198500D02*
X467500D01*
X100500Y401500D02*
X467500D01*
D16*
X206114Y291154D02*
X232886D01*
X206114Y262846D02*
X232886D01*
X206114D02*
Y291154D01*
X232886Y262846D02*
Y291154D01*
X275614Y228153D02*
X302386D01*
X275614Y199846D02*
X302386D01*
X275614D02*
Y228153D01*
X302386Y199846D02*
Y228153D01*
X427614Y348153D02*
X454386D01*
X427614Y319847D02*
X454386D01*
X427614D02*
Y348153D01*
X454386Y319847D02*
Y348153D01*
X236343Y312744D02*
X275398D01*
Y233256D02*
Y312744D01*
X236343Y233256D02*
X275398D01*
X236343D02*
Y312744D01*
X346455Y303263D02*
X365545D01*
X346455D02*
Y348736D01*
X365545D01*
Y303263D02*
Y348736D01*
M02*
