M48
;Layer_Color=9474304
;FILE_FORMAT=2:5
INCH,TZ
;TYPE=PLATED
T1F00S00C0.02559
T2F00S00C0.02756
T3F00S00C0.02953
T4F00S00C0.02992
T5F00S00C0.03346
T6F00S00C0.03543
T7F00S00C0.03780
T8F00S00C0.04134
T9F00S00C0.04331
T10F00S00C0.15748
%
T01
X290500Y311063
X138000Y350063
Y357937
X159563Y353500
X167437
X290500Y318937
T02
X288000Y268158
Y287842
X356000Y316394
Y335606
X374157Y336000
X393843
X394343Y315000
X374657
T03
X169185Y296500
Y309500
X209500Y277138
X219500Y287138
X229500Y277138
X279000Y214138
X289000Y224138
X299000Y214138
X129815Y296500
Y309500
X129315Y323000
X168685
X190000Y347815
X204357Y347815
X233071
X247429
X261786
X276143Y347815
X290500Y347815
Y387185
X276143Y387185
X261786Y387185
X247429
X233071
X204357
X190000Y387185
X431000Y334138
X441000Y344138
X451000Y334138
T04
X240240Y243000
Y253000
Y263000
Y273000
Y283000
Y293000
Y303000
X271500
Y293000
Y283000
Y273000
Y263000
Y253000
Y243000
T05
X430500Y272500
Y312500
T06
X338000Y254500
Y264500
Y274500
Y284500
Y294500
Y304500
X415500Y307500
Y297500
Y287500
Y277500
Y267500
Y257500
Y247500
Y237500
Y227500
X308000Y254500
Y264500
Y274500
Y284500
Y294500
Y304500
X223500Y211500
X213500
X194500
X184500
X113000Y249500
Y259500
X113500Y285000
Y295000
Y319000
Y329000
X113000Y350000
Y360000
X308000Y364500
Y374500
Y384500
Y354500
Y344500
Y334500
Y324500
Y314500
X338000
Y324500
Y334500
Y344500
Y354500
Y364500
Y374500
Y384500
X415500Y377500
Y367500
Y357500
Y347500
Y337500
Y327500
Y317500
T07
X171500Y248764
Y259000
Y269236
X143000
Y259000
Y248764
X199500Y320500
X209736
X219972
T08
X217828Y349423
Y386982
T09
X143000Y378500
X153000
X163000
T10
X453500Y209000
X113500Y213000
X114500Y389000
X452500Y387000
M30
